<svg width="75" height="54" viewBox="0 0 75 54" fill="none" xmlns="http://www.w3.org/2000/svg">
<circle cx="48" cy="27" r="27" fill="#FEC107"/>
<path d="M1.332 36L1.341 22.986H4.41V33.453H9.837V36H1.332ZM15.5384 36.18C14.6024 36.18 13.7894 35.982 13.0994 35.586C12.4094 35.184 11.8754 34.626 11.4974 33.912C11.1194 33.192 10.9304 32.355 10.9304 31.401C10.9304 30.429 11.1224 29.577 11.5064 28.845C11.8964 28.107 12.4364 27.534 13.1264 27.126C13.8224 26.718 14.6324 26.514 15.5564 26.514C16.4984 26.514 17.3114 26.721 17.9954 27.135C18.6854 27.543 19.2164 28.116 19.5884 28.854C19.9664 29.586 20.1554 30.435 20.1554 31.401C20.1554 32.331 19.9694 33.156 19.5974 33.876C19.2254 34.59 18.6944 35.154 18.0044 35.568C17.3144 35.976 16.4924 36.18 15.5384 36.18ZM15.5564 33.93C15.9704 33.93 16.2944 33.801 16.5284 33.543C16.7624 33.279 16.9274 32.946 17.0234 32.544C17.1194 32.136 17.1674 31.722 17.1674 31.302C17.1674 30.888 17.1224 30.483 17.0324 30.087C16.9424 29.691 16.7804 29.367 16.5464 29.115C16.3124 28.857 15.9824 28.728 15.5564 28.728C15.1304 28.728 14.7974 28.854 14.5574 29.106C14.3234 29.352 14.1584 29.673 14.0624 30.069C13.9664 30.459 13.9184 30.87 13.9184 31.302C13.9184 31.71 13.9634 32.118 14.0534 32.526C14.1434 32.928 14.3054 33.264 14.5394 33.534C14.7794 33.798 15.1184 33.93 15.5564 33.93ZM26.1006 39.078C24.3546 39.078 23.0406 38.868 22.1586 38.448C21.2826 38.034 20.8446 37.506 20.8446 36.864C20.8446 36.552 20.9286 36.294 21.0966 36.09C21.2706 35.886 21.4716 35.724 21.6996 35.604C21.9276 35.484 22.1376 35.397 22.3296 35.343C22.5216 35.283 22.6386 35.244 22.6806 35.226C22.5846 35.178 22.4376 35.1 22.2396 34.992C22.0476 34.884 21.8676 34.731 21.6996 34.533C21.5316 34.335 21.4476 34.077 21.4476 33.759C21.4476 33.405 21.6126 33.081 21.9426 32.787C22.2786 32.487 22.7886 32.286 23.4726 32.184C22.8306 31.89 22.3476 31.488 22.0236 30.978C21.6996 30.468 21.5376 29.961 21.5376 29.457C21.5376 28.839 21.7416 28.314 22.1496 27.882C22.5636 27.444 23.1156 27.114 23.8056 26.892C24.4956 26.664 25.2636 26.55 26.1096 26.55C26.7576 26.55 27.2856 26.619 27.6936 26.757C28.1016 26.889 28.4796 27.054 28.8276 27.252C28.9836 27.192 29.1786 27.117 29.4126 27.027C29.6466 26.931 29.8986 26.832 30.1686 26.73C30.4446 26.622 30.7146 26.514 30.9786 26.406C31.2486 26.292 31.4976 26.19 31.7256 26.1L31.7076 28.359L30.1146 28.593C30.1626 28.743 30.1986 28.902 30.2226 29.07C30.2526 29.232 30.2676 29.358 30.2676 29.448C30.2676 29.976 30.1026 30.48 29.7726 30.96C29.4486 31.44 28.9596 31.833 28.3056 32.139C27.6576 32.439 26.8566 32.589 25.9026 32.589C25.7766 32.589 25.5996 32.586 25.3716 32.58C25.1436 32.568 24.9606 32.556 24.8226 32.544C24.6006 32.562 24.4476 32.595 24.3636 32.643C24.2796 32.685 24.2376 32.742 24.2376 32.814C24.2376 32.952 24.3726 33.039 24.6426 33.075C24.9126 33.105 25.2966 33.138 25.7946 33.174C25.9746 33.18 26.2326 33.192 26.5686 33.21C26.9106 33.228 27.2856 33.252 27.6936 33.282C28.9056 33.366 29.7996 33.66 30.3756 34.164C30.9516 34.668 31.2396 35.283 31.2396 36.009C31.2396 36.897 30.8106 37.629 29.9526 38.205C29.1006 38.787 27.8166 39.078 26.1006 39.078ZM26.5866 37.422C27.2586 37.422 27.7176 37.35 27.9636 37.206C28.2096 37.062 28.3326 36.864 28.3326 36.612C28.3326 36.372 28.2216 36.177 27.9996 36.027C27.7776 35.877 27.4596 35.79 27.0456 35.766L25.1376 35.64C24.8376 35.622 24.5886 35.655 24.3906 35.739C24.1986 35.823 24.0576 35.934 23.9676 36.072C23.8776 36.21 23.8326 36.354 23.8326 36.504C23.8326 36.846 24.0546 37.083 24.4986 37.215C24.9486 37.353 25.6446 37.422 26.5866 37.422ZM26.0016 30.933C26.4156 30.933 26.7486 30.807 27.0006 30.555C27.2526 30.303 27.3786 29.97 27.3786 29.556C27.3786 29.136 27.2526 28.788 27.0006 28.512C26.7486 28.236 26.4156 28.098 26.0016 28.098C25.5876 28.098 25.2516 28.239 24.9936 28.521C24.7356 28.797 24.6066 29.142 24.6066 29.556C24.6066 29.964 24.7326 30.297 24.9846 30.555C25.2366 30.807 25.5756 30.933 26.0016 30.933ZM37.0013 36.18C36.0653 36.18 35.2523 35.982 34.5623 35.586C33.8723 35.184 33.3383 34.626 32.9603 33.912C32.5823 33.192 32.3933 32.355 32.3933 31.401C32.3933 30.429 32.5853 29.577 32.9692 28.845C33.3593 28.107 33.8993 27.534 34.5893 27.126C35.2853 26.718 36.0953 26.514 37.0193 26.514C37.9613 26.514 38.7743 26.721 39.4583 27.135C40.1483 27.543 40.6793 28.116 41.0513 28.854C41.4293 29.586 41.6183 30.435 41.6183 31.401C41.6183 32.331 41.4323 33.156 41.0603 33.876C40.6883 34.59 40.1573 35.154 39.4673 35.568C38.7773 35.976 37.9553 36.18 37.0013 36.18ZM37.0193 33.93C37.4333 33.93 37.7573 33.801 37.9913 33.543C38.2253 33.279 38.3903 32.946 38.4863 32.544C38.5823 32.136 38.6303 31.722 38.6303 31.302C38.6303 30.888 38.5853 30.483 38.4953 30.087C38.4053 29.691 38.2433 29.367 38.0093 29.115C37.7753 28.857 37.4453 28.728 37.0193 28.728C36.5933 28.728 36.2603 28.854 36.0203 29.106C35.7863 29.352 35.6213 29.673 35.5253 30.069C35.4293 30.459 35.3813 30.87 35.3813 31.302C35.3813 31.71 35.4263 32.118 35.5163 32.526C35.6063 32.928 35.7683 33.264 36.0023 33.534C36.2423 33.798 36.5813 33.93 37.0193 33.93Z" fill="#101010"/>
</svg>
