<svg width="194" height="139" viewBox="0 0 194 139" fill="none" xmlns="http://www.w3.org/2000/svg">
<circle cx="123.556" cy="69.5" r="69.5" fill="#FEC107"/>
<path d="M3.42867 92.9073L3.45183 59.4083H11.3517V86.3512H25.3212V92.9073H3.42867ZM39.9969 93.3707C37.5876 93.3707 35.4948 92.861 33.7187 91.8417C31.9426 90.8069 30.5681 89.3706 29.5951 87.5327C28.6221 85.6793 28.1356 83.5248 28.1356 81.0692C28.1356 78.5672 28.6298 76.3741 29.6182 74.4898C30.6221 72.5902 32.0121 71.1152 33.7882 70.065C35.5798 69.0148 37.6648 68.4897 40.0432 68.4897C42.468 68.4897 44.5607 69.0225 46.3214 70.0882C48.0975 71.1384 49.4643 72.6133 50.4219 74.513C51.3949 76.3972 51.8814 78.5826 51.8814 81.0692C51.8814 83.4631 51.4026 85.5867 50.4451 87.44C49.4875 89.2779 48.1207 90.7297 46.3446 91.7953C44.5684 92.8456 42.4526 93.3707 39.9969 93.3707ZM40.0432 87.579C41.1089 87.579 41.9429 87.247 42.5452 86.5828C43.1476 85.9033 43.5723 85.0461 43.8194 84.0113C44.0665 82.9611 44.1901 81.8955 44.1901 80.8143C44.1901 79.7487 44.0742 78.7062 43.8426 77.6868C43.6109 76.6675 43.1939 75.8335 42.5916 75.1848C41.9892 74.5207 41.1398 74.1887 40.0432 74.1887C38.9467 74.1887 38.0895 74.513 37.4717 75.1617C36.8694 75.7949 36.4447 76.6212 36.1976 77.6405C35.9504 78.6444 35.8269 79.7023 35.8269 80.8143C35.8269 81.8646 35.9427 82.9148 36.1744 83.965C36.4061 84.9998 36.8231 85.8647 37.4254 86.5597C38.0432 87.2392 38.9158 87.579 40.0432 87.579ZM67.1848 100.83C62.6904 100.83 59.3081 100.29 57.0378 99.2087C54.7829 98.143 53.6554 96.7839 53.6554 95.1313C53.6554 94.3282 53.8717 93.6641 54.3041 93.139C54.752 92.6139 55.2694 92.1969 55.8563 91.888C56.4432 91.5791 56.9837 91.3552 57.4779 91.2162C57.9722 91.0617 58.2733 90.9613 58.3814 90.915C58.1343 90.7915 57.7559 90.5907 57.2463 90.3127C56.7521 90.0347 56.2887 89.6408 55.8563 89.1312C55.4238 88.6215 55.2076 87.9574 55.2076 87.1388C55.2076 86.2276 55.6323 85.3936 56.4818 84.6368C57.3467 83.8646 58.6594 83.3472 60.4201 83.0847C58.7676 82.3279 57.5243 81.2931 56.6903 79.9803C55.8563 78.6676 55.4393 77.3625 55.4393 76.0652C55.4393 74.4744 55.9644 73.123 57.0146 72.011C58.0803 70.8836 59.5012 70.0341 61.2773 69.4627C63.0534 68.8758 65.0303 68.5823 67.2079 68.5823C68.8759 68.5823 70.2351 68.76 71.2853 69.1152C72.3355 69.455 73.3085 69.8797 74.2043 70.3893C74.6058 70.2349 75.1078 70.0418 75.7101 69.8102C76.3124 69.5631 76.9611 69.3082 77.6561 69.0457C78.3666 68.7677 79.0616 68.4897 79.7411 68.2117C80.4361 67.9182 81.0771 67.6557 81.6639 67.424L81.6176 73.2388L77.5171 73.8412C77.6407 74.2273 77.7333 74.6366 77.7951 75.069C77.8723 75.486 77.9109 75.8103 77.9109 76.042C77.9109 77.4011 77.4862 78.6985 76.6368 79.934C75.8028 81.1696 74.5441 82.1812 72.8606 82.9688C71.1926 83.7411 69.1308 84.1272 66.6751 84.1272C66.3508 84.1272 65.8952 84.1195 65.3083 84.104C64.7214 84.0731 64.2503 84.0422 63.8951 84.0113C63.3237 84.0577 62.9298 84.1426 62.7136 84.2662C62.4974 84.3743 62.3893 84.521 62.3893 84.7063C62.3893 85.0616 62.7368 85.2855 63.4318 85.3782C64.1268 85.4554 65.1152 85.5403 66.3971 85.633C66.8604 85.6485 67.5246 85.6793 68.3894 85.7257C69.2698 85.772 70.2351 85.8338 71.2853 85.911C74.4051 86.1272 76.7063 86.884 78.1889 88.1813C79.6716 89.4787 80.4129 91.0617 80.4129 92.9305C80.4129 95.2163 79.3087 97.1005 77.1001 98.5832C74.907 100.081 71.6019 100.83 67.1848 100.83ZM68.4358 96.5677C70.1656 96.5677 71.3471 96.3823 71.9803 96.0117C72.6135 95.641 72.9301 95.1313 72.9301 94.4827C72.9301 93.8649 72.6444 93.363 72.0729 92.9768C71.5015 92.5907 70.6829 92.3668 69.6173 92.305L64.7059 91.9807C63.9337 91.9343 63.2928 92.0193 62.7831 92.2355C62.2889 92.4517 61.9259 92.7375 61.6943 93.0927C61.4626 93.4479 61.3468 93.8186 61.3468 94.2047C61.3468 95.085 61.9182 95.6951 63.0611 96.0348C64.2194 96.3901 66.011 96.5677 68.4358 96.5677ZM66.9299 79.8645C67.9956 79.8645 68.8528 79.5402 69.5014 78.8915C70.1501 78.2428 70.4744 77.3857 70.4744 76.32C70.4744 75.2389 70.1501 74.3431 69.5014 73.6327C68.8528 72.9222 67.9956 72.567 66.9299 72.567C65.8643 72.567 64.9994 72.93 64.3353 73.6558C63.6712 74.3663 63.3391 75.2543 63.3391 76.32C63.3391 77.3702 63.6634 78.2274 64.3121 78.8915C64.9608 79.5402 65.8334 79.8645 66.9299 79.8645ZM95.244 93.3707C92.8346 93.3707 90.7419 92.861 88.9658 91.8417C87.1897 90.8069 85.8151 89.3706 84.8421 87.5327C83.8691 85.6793 83.3826 83.5248 83.3826 81.0692C83.3826 78.5672 83.8768 76.3741 84.8653 74.4898C85.8692 72.5902 87.2592 71.1152 89.0353 70.065C90.8268 69.0148 92.9118 68.4897 95.2903 68.4897C97.7151 68.4897 99.8078 69.0225 101.568 70.0882C103.345 71.1384 104.711 72.6133 105.669 74.513C106.642 76.3972 107.128 78.5826 107.128 81.0692C107.128 83.4631 106.65 85.5867 105.692 87.44C104.735 89.2779 103.368 90.7297 101.592 91.7953C99.8155 92.8456 97.6996 93.3707 95.244 93.3707ZM95.2903 87.579C96.356 87.579 97.19 87.247 97.7923 86.5828C98.3946 85.9033 98.8193 85.0461 99.0665 84.0113C99.3136 82.9611 99.4371 81.8955 99.4371 80.8143C99.4371 79.7487 99.3213 78.7062 99.0896 77.6868C98.858 76.6675 98.441 75.8335 97.8386 75.1848C97.2363 74.5207 96.3868 74.1887 95.2903 74.1887C94.1937 74.1887 93.3366 74.513 92.7188 75.1617C92.1165 75.7949 91.6917 76.6212 91.4446 77.6405C91.1975 78.6444 91.074 79.7023 91.074 80.8143C91.074 81.8646 91.1898 82.9148 91.4215 83.965C91.6531 84.9998 92.0701 85.8647 92.6725 86.5597C93.2902 87.2392 94.1628 87.579 95.2903 87.579Z" fill="white"/>
</svg>
