<svg width="350" height="144" viewBox="0 0 350 144" fill="none" xmlns="http://www.w3.org/2000/svg">
<path d="M5.52432 81.8C5.52173 82.9563 5.55106 84.1776 5.60855 85.4525C5.62061 85.6908 5.63132 85.9335 5.64468 86.1759C5.69559 87.1349 5.76373 88.1235 5.84784 89.1346C5.86789 89.3644 5.88666 89.5943 5.90802 89.8269C5.93207 90.1062 5.95892 90.3882 5.98697 90.6702C6.10321 91.8618 6.24094 93.0817 6.4014 94.3213C6.43353 94.5723 6.4671 94.8219 6.50168 95.0729C6.66345 96.2729 6.84656 97.4942 7.05255 98.7253C7.09396 98.9764 7.13806 99.2329 7.18219 99.4854C7.39075 100.695 7.61807 101.914 7.86816 103.136C7.92014 103.393 7.97504 103.65 8.02853 103.905C8.23053 104.87 8.44836 105.834 8.67441 106.797C8.79605 107.305 8.92038 107.811 9.04602 108.316C9.35358 109.542 9.68393 110.76 10.0328 111.967C10.105 112.219 10.1799 112.469 10.2549 112.722C10.6226 113.953 11.0102 115.171 11.4221 116.37C11.5089 116.624 11.5971 116.877 11.6868 117.131C12.0492 118.154 12.4288 119.162 12.822 120.149C13.0387 120.691 13.2605 121.225 13.4852 121.754C14.0226 123.009 14.591 124.229 15.1859 125.402C15.3156 125.658 15.4467 125.911 15.5778 126.162C16.2544 127.441 16.9642 128.661 17.7116 129.808C17.8694 130.052 18.0285 130.291 18.1931 130.528C19.0983 131.857 20.0569 133.079 21.0691 134.17C21.3942 134.522 21.7244 134.862 22.0613 135.185C23.6845 136.752 25.4334 137.99 27.3132 138.818C27.4509 138.878 27.5887 138.937 27.7277 138.994C27.7625 139.008 27.7972 139.022 27.832 139.036C28.1048 139.145 28.3789 139.244 28.6556 139.335L43.2538 139.356L84.5213 139.417L135.742 139.11L155.765 138.988L195.382 138.751L315.048 138.034C315.048 138.034 337.243 124.898 337.243 102.097C337.243 101.783 337.239 101.47 337.231 101.152C336.903 88.9653 333.638 65.7392 305.562 53.6819C303.546 52.8174 301.4 52.008 299.118 51.2648C297.077 50.6005 294.929 49.9899 292.664 49.4371C289.785 48.7348 286.723 48.127 283.463 47.6264C283.144 47.5756 282.821 47.5277 282.498 47.4811C280.94 47.254 279.448 46.9861 278.017 46.6774C240.245 38.5644 244.784 3.49252 194.963 1.05002C190.401 0.82444 185.385 0.875116 179.836 1.24322C171.317 1.81156 164.298 3.88737 158.025 6.32847C151.39 8.90635 145.588 11.8917 139.728 13.9183L139.326 14.0565C133.577 16.0025 127.753 16.9996 121.01 15.7657C120.684 15.7079 120.352 15.6416 120.019 15.5711C112.553 13.9847 105.579 12.8169 99.0672 12.0286C98.9321 12.0132 98.7984 11.9963 98.6634 11.9807C83.0116 10.122 70.0286 10.4802 59.2357 12.5504C59.1007 12.5757 58.9656 12.6012 58.8332 12.6293C54.1708 13.5446 49.9216 14.7813 46.0441 16.2987C44.9612 16.7219 43.9088 17.1661 42.8845 17.6328C42.8538 17.6469 42.8218 17.6596 42.7909 17.6751C42.6198 17.754 42.45 17.8331 42.2802 17.912C42.117 17.9882 41.9539 18.0657 41.7908 18.1418C41.7761 18.149 41.7614 18.1574 41.7466 18.1643C40.4844 18.7694 39.2651 19.4081 38.0883 20.0766C36.6937 20.8706 35.3552 21.7068 34.0784 22.584C33.7146 22.8336 33.3537 23.0861 32.9994 23.3427C31.3909 24.5005 29.8774 25.7274 28.4507 27.0106C28.1686 27.263 27.8918 27.5183 27.6177 27.775C26.3635 28.9511 25.1789 30.1737 24.0584 31.4401C23.7709 31.7645 23.49 32.0902 23.2119 32.4188C22.2091 33.6063 21.2599 34.8274 20.3641 36.0812C20.1822 36.335 20.0045 36.5903 19.8265 36.8455C18.9988 38.0386 18.2166 39.2613 17.476 40.5065C17.3155 40.7758 17.1563 41.0495 17 41.3215C16.326 42.4921 15.6881 43.6822 15.0852 44.8894C14.8607 45.3407 14.64 45.792 14.4247 46.2474C14.049 47.0358 13.6893 47.8326 13.343 48.6349C13.0516 49.3063 12.7707 49.9803 12.4966 50.6587C12.0125 51.8672 11.554 53.0856 11.1234 54.3168C11.0337 54.5706 10.9455 54.8259 10.86 55.0797C10.5686 55.9315 10.2891 56.7875 10.0218 57.6491C9.90939 58.0101 9.79852 58.374 9.69012 58.7378C9.61398 58.9916 9.53763 59.2511 9.46152 59.5077C9.39734 59.7305 9.33459 59.9533 9.27032 60.1747C9.01764 61.0688 8.7742 61.9671 8.5416 62.8683C8.51614 62.9655 8.49069 63.0643 8.46548 63.1643C8.40118 63.4182 8.33701 63.672 8.27286 63.9259C7.97208 65.1401 7.68729 66.3585 7.42111 67.5812C7.36621 67.8322 7.31287 68.0847 7.25797 68.3357C6.99988 69.5527 6.75662 70.7725 6.52927 71.9923C6.48117 72.2462 6.43427 72.5 6.38757 72.7539C6.24973 73.5041 6.11884 74.2529 5.99179 75.0004C5.93958 75.3106 5.89148 75.6364 5.84738 75.9748C5.83014 76.1158 5.81265 76.261 5.79529 76.4092C5.75916 76.7237 5.72574 77.0508 5.69769 77.3864C5.6015 78.4977 5.5452 79.7217 5.52795 81.0388C5.52548 81.2895 5.52432 81.5447 5.52432 81.8Z" fill="#EBF3FA"/>
<path d="M5.84784 75.9742V89.1343C5.86789 89.3641 5.88666 89.5941 5.90799 89.8267C5.93204 90.106 5.95892 90.388 5.98697 90.67C6.10321 91.8616 6.24091 93.0815 6.4014 94.3211C6.43353 94.5721 6.46707 94.8217 6.50168 95.0726C6.66345 96.2727 6.84656 97.494 7.05255 98.7251C7.09396 98.9762 7.13806 99.2327 7.18216 99.4851C7.39072 100.695 7.61804 101.913 7.86813 103.136C7.9201 103.393 7.97504 103.649 8.02853 103.905C8.23053 104.869 8.44833 105.834 8.67438 106.797C8.79602 107.305 8.92038 107.811 9.04599 108.316C9.35358 109.541 9.68393 110.76 10.0328 111.967C10.105 112.219 10.1799 112.469 10.2549 112.721C10.6226 113.953 11.0102 115.171 11.4221 116.37C11.5089 116.623 11.5971 116.877 11.6867 117.131C12.0492 118.154 12.4288 119.162 12.822 120.149C13.0387 120.69 13.2605 121.225 13.4851 121.754C14.0226 123.009 14.591 124.229 15.1859 125.402C15.3156 125.657 15.4467 125.911 15.5778 126.162C16.2544 127.441 16.9642 128.661 17.7116 129.808C17.8694 130.051 18.0285 130.291 18.193 130.528C19.0983 131.857 20.0569 133.079 21.0691 134.169C21.3942 134.522 21.7244 134.862 22.0613 135.185C23.6845 136.751 25.4334 137.99 27.3132 138.817C27.4509 138.878 27.5886 138.937 27.7276 138.994C27.7625 139.008 27.7972 139.022 27.832 139.036L135.742 139.109L155.765 138.988L195.382 138.751L315.048 138.033C315.048 138.033 337.243 124.897 337.243 102.097C337.243 101.782 337.239 101.469 337.231 101.152C336.903 88.965 333.638 65.7388 305.562 53.6816V64.6545H299.118V51.2646C297.077 50.6003 294.929 49.9897 292.664 49.4368C289.785 48.7345 286.723 48.1268 283.463 47.6261C283.144 47.5753 282.822 47.5275 282.498 47.4809C280.94 47.2538 279.448 46.9859 278.017 46.6771V62.9763H270.895V59.1689L262.494 59.2027V53.033H260.803V51.8118H260.579V53.033H254.093V53.0344H252.795V51.8118H252.572V53.0344H251.007V65.3047H241.006V69.8202H235.448V67.1973H230.292V56.7871H227.722V51.9304H227.333V56.7871H221.17V47.6857H220.566V56.7871H216.489V56.6616H216.496V55.5066H216.489V54.4123H216.496V52.5946H216.489V51.4311H216.496V49.6134H216.489V48.4514H216.496V46.6322H216.489V45.3771H216.496V43.5579H216.489V41.96H216.496V40.1408H216.489V38.9351H215.275V37.5742H215.08V38.9351H206.081V37.5742H205.887V38.9351H204.246V48.4511L203.089 48.4582V48.4511H203.098V46.632H203.089V45.3768H203.098V43.5577H203.089V42.3067H203.098V40.4878H203.089V40.4822H192.177V40.4878H190.301C190.204 40.5371 190.107 40.5837 190.01 40.633V51.0177H182.033V64.6545H175.589V39.4357H174.187V37.6716H173.935V39.4357H168.846V37.6716H168.594V39.4357H161.388V37.6716H161.136V39.4357H156.602V37.6716H156.35V39.4357H154.486V62.9763H147.365V59.1689L138.964 59.2027V53.033H137.273V51.8118H137.049V53.033H130.563V53.0344H129.268V51.8118H129.043V53.0344H127.479V65.3047H117.476V69.8202H111.918V67.1973H106.762V56.7871H104.192V51.9304H103.803V56.7871H97.6405V47.6857H97.0361V56.7871H92.9594V56.6616H92.9661V55.5066H92.9594V54.4123H92.9661V52.5946H92.9594V51.4311H92.9661V49.6134H92.9594V48.4514H92.9661V46.6322H92.9594V45.3771H92.9661V43.5579H92.9594V41.96H92.9661V40.1408H92.9594V38.9351H91.744V37.5742H91.5502V38.9351H82.5531V37.5742H82.3579V38.9351H80.716V48.4511L79.5753 48.4582H79.5592V48.4511H79.5686V46.632H79.5592V45.3768H79.5686V43.5577H79.5592V42.3067H79.5686V40.4878H79.5592V40.4822H68.6475V40.4878H66.7729C66.6754 40.5371 66.5792 40.5837 66.4814 40.633V51.0177H53.092V64.6559H46.6473V39.4357H45.2461V37.6716H44.9934V39.4357H39.9044V37.6716H39.653V39.4357H32.4461V37.6716H32.1947V39.4357H25.5454V62.9777H18.4228V59.1688L10.022 59.2025V57.6485C9.90961 58.0095 9.79877 58.3734 9.69037 58.7372C9.61423 58.991 9.53784 59.2505 9.46173 59.5072C9.39755 59.7299 9.33481 59.9527 9.27054 60.1742C9.01785 61.0683 8.77444 61.9666 8.54184 62.8677C8.51639 62.9649 8.49091 63.0637 8.4657 63.1638C8.4014 63.4176 8.33725 63.6715 8.2731 63.9253C7.97232 65.1395 7.68753 66.358 7.42136 67.5806C7.36646 67.8317 7.31308 68.0841 7.25818 68.3351C7.00009 69.5522 6.75684 70.7719 6.52948 71.9917C6.48138 72.2456 6.43448 72.4994 6.38779 72.7533C6.24994 73.5036 6.11905 74.2523 5.992 74.9998C5.94003 75.31 5.89194 75.6359 5.84784 75.9742Z" fill="#D5E5FB"/>
<path d="M154.484 39.4353H170.584V43.4258H154.484V39.4353Z" fill="#E2EEFD"/>
<path d="M154.484 45.5774H170.584V49.5678H154.484V45.5774Z" fill="#E2EEFD"/>
<path d="M154.484 51.8474H170.584V55.8379H154.484V51.8474Z" fill="#E2EEFD"/>
<path d="M154.484 58.2175H170.584V62.208H154.484V58.2175Z" fill="#E2EEFD"/>
<path d="M154.484 64.3638H170.584V68.3542H154.484V64.3638Z" fill="#E2EEFD"/>
<path d="M85.4259 38.9357H92.9379V41.3591H85.4259V38.9357Z" fill="#E2EEFD"/>
<path d="M85.426 42.6658H92.9379V45.0892H85.426V42.6658Z" fill="#E2EEFD"/>
<path d="M85.426 46.4738H92.9379V48.8971H85.426V46.4738Z" fill="#E2EEFD"/>
<path d="M85.426 50.3424H92.9379V52.7658H85.426V50.3424Z" fill="#E2EEFD"/>
<path d="M85.426 54.0751H92.9379V56.4985H85.426V54.0751Z" fill="#E2EEFD"/>
<path d="M85.4259 58.1833H92.9379V60.6067H85.4259V58.1833Z" fill="#E2EEFD"/>
<path d="M85.426 61.9133H92.9379V64.3367H85.426V61.9133Z" fill="#E2EEFD"/>
<path d="M85.426 65.7213H92.9379V68.1448H85.426V65.7213Z" fill="#E2EEFD"/>
<path d="M85.426 69.59H92.9379V72.0134H85.426V69.59Z" fill="#E2EEFD"/>
<path d="M85.426 73.3228H92.9379V75.7461H85.426V73.3228Z" fill="#E2EEFD"/>
<path d="M71.5253 40.5249H79.5754V42.9483H71.5253V40.5249Z" fill="#E2EEFD"/>
<path d="M71.5252 44.255H79.5753V46.6784H71.5252V44.255Z" fill="#E2EEFD"/>
<path d="M71.5252 48.0629H79.5753V50.4863H71.5252V48.0629Z" fill="#E2EEFD"/>
<path d="M71.5252 51.9316H79.5753V54.355H71.5252V51.9316Z" fill="#E2EEFD"/>
<path d="M71.5252 55.6643H79.5753V58.0877H71.5252V55.6643Z" fill="#E2EEFD"/>
<path d="M71.5253 59.556H79.5754V61.9794H71.5253V59.556Z" fill="#E2EEFD"/>
<path d="M71.5252 63.286H79.5753V65.7094H71.5252V63.286Z" fill="#E2EEFD"/>
<path d="M71.5252 67.094H79.5753V69.5174H71.5252V67.094Z" fill="#E2EEFD"/>
<path d="M71.5252 70.9625H79.5753V73.386H71.5252V70.9625Z" fill="#E2EEFD"/>
<path d="M71.5252 74.6953H79.5753V77.1187H71.5252V74.6953Z" fill="#E2EEFD"/>
<path d="M71.5253 78.9763H79.5754V81.3997H71.5253V78.9763Z" fill="#E2EEFD"/>
<path d="M71.5252 82.7063H79.5753V85.1297H71.5252V82.7063Z" fill="#E2EEFD"/>
<path d="M71.5252 86.5144H79.5753V88.9378H71.5252V86.5144Z" fill="#E2EEFD"/>
<path d="M71.5252 90.3831H79.5753V92.8064H71.5252V90.3831Z" fill="#E2EEFD"/>
<path d="M71.5252 94.1157H79.5753V96.5391H71.5252V94.1157Z" fill="#E2EEFD"/>
<path d="M25.5456 39.4353H40.2035V43.4258H25.5456V39.4353Z" fill="#E2EEFD"/>
<path d="M25.5456 45.5774H40.2035V49.5678H25.5456V45.5774Z" fill="#E2EEFD"/>
<path d="M25.5456 51.8474H40.2035V55.8379H25.5456V51.8474Z" fill="#E2EEFD"/>
<path d="M25.5456 58.2175H40.2035V62.208H25.5456V58.2175Z" fill="#E2EEFD"/>
<path d="M25.5456 64.3638H40.2035V68.3542H25.5456V64.3638Z" fill="#E2EEFD"/>
<path d="M208.514 38.9357H216.565V41.3591H208.514V38.9357Z" fill="#E2EEFD"/>
<path d="M208.514 42.6658H216.564V45.0892H208.514V42.6658Z" fill="#E2EEFD"/>
<path d="M208.514 46.4738H216.564V48.8971H208.514V46.4738Z" fill="#E2EEFD"/>
<path d="M208.514 50.3424H216.564V52.7658H208.514V50.3424Z" fill="#E2EEFD"/>
<path d="M208.514 54.0751H216.564V56.4985H208.514V54.0751Z" fill="#E2EEFD"/>
<path d="M208.514 58.1833H216.564V60.6067H208.514V58.1833Z" fill="#E2EEFD"/>
<path d="M208.514 61.9133H216.564V64.3367H208.514V61.9133Z" fill="#E2EEFD"/>
<path d="M208.514 65.7213H216.564V68.1448H208.514V65.7213Z" fill="#E2EEFD"/>
<path d="M208.514 69.59H216.564V72.0134H208.514V69.59Z" fill="#E2EEFD"/>
<path d="M208.514 73.3228H216.564V75.7461H208.514V73.3228Z" fill="#E2EEFD"/>
<path d="M193.783 40.5249H202.933V42.9483H193.783V40.5249Z" fill="#E2EEFD"/>
<path d="M193.784 44.255H202.933V46.6784H193.784V44.255Z" fill="#E2EEFD"/>
<path d="M193.784 48.0629H202.933V50.4863H193.784V48.0629Z" fill="#E2EEFD"/>
<path d="M193.784 51.9316H202.933V54.355H193.784V51.9316Z" fill="#E2EEFD"/>
<path d="M193.784 55.6643H202.933V58.0877H193.784V55.6643Z" fill="#E2EEFD"/>
<path d="M193.783 59.556H202.933V61.9794H193.783V59.556Z" fill="#E2EEFD"/>
<path d="M193.784 63.286H202.933V65.7094H193.784V63.286Z" fill="#E2EEFD"/>
<path d="M193.784 67.094H202.933V69.5174H193.784V67.094Z" fill="#E2EEFD"/>
<path d="M193.784 70.9625H202.933V73.386H193.784V70.9625Z" fill="#E2EEFD"/>
<path d="M193.784 74.6953H202.933V77.1187H193.784V74.6953Z" fill="#E2EEFD"/>
<path d="M193.783 78.9763H202.933V81.3997H193.783V78.9763Z" fill="#E2EEFD"/>
<path d="M193.784 82.7063H202.933V85.1297H193.784V82.7063Z" fill="#E2EEFD"/>
<path d="M193.784 86.5144H202.933V88.9378H193.784V86.5144Z" fill="#E2EEFD"/>
<path d="M193.784 90.3831H202.933V92.8064H193.784V90.3831Z" fill="#E2EEFD"/>
<path d="M193.784 94.1157H202.933V96.5391H193.784V94.1157Z" fill="#E2EEFD"/>
<path d="M212.854 25.346C212.854 25.346 210.206 20.9745 203.876 21.4603C203.876 21.4603 194.685 14.1743 184.885 20.4889C184.885 20.4889 174.467 18.9243 166.752 21.8436C161.608 23.79 159.909 25.8317 159.909 25.8317L212.854 25.346Z" fill="#F8FCFF"/>
<path d="M156.215 37.6491C156.215 37.6491 154.5 34.6757 150.399 35.006C150.399 35.006 144.444 30.0499 138.094 34.3452C138.094 34.3452 131.344 33.281 126.345 35.2668C123.012 36.5908 121.911 37.9795 121.911 37.9795L156.215 37.6491Z" fill="#F8FCFF"/>
<path d="M107.802 24.5232C107.802 24.5232 106.241 21.6307 102.506 21.9521C102.506 21.9521 97.0829 17.1313 91.3005 21.3094C91.3005 21.3094 85.1537 20.2742 80.6015 22.2058C77.5665 23.4936 76.5639 24.8447 76.5639 24.8447L107.802 24.5232Z" fill="#F8FCFF"/>
<path d="M239.308 28.1555H241.684V136.323H239.308V28.1555Z" fill="#AEC3FF"/>
<path d="M237.128 138.085C237.128 138.085 238.017 138.872 240.496 138.872C242.825 138.872 243.864 138.085 243.864 138.085V112.675C243.864 110.918 242.44 109.495 240.684 109.495H240.466C238.622 109.495 237.128 110.989 237.128 112.833V138.085H237.128Z" fill="#9DB0F4"/>
<path d="M236.41 51.4729H244.582C245.486 51.4729 246.218 50.7403 246.218 49.8367V19.55C246.218 18.6463 245.486 17.9138 244.582 17.9138H236.41C235.506 17.9138 234.774 18.6464 234.774 19.55V49.8367C234.774 50.7403 235.506 51.4729 236.41 51.4729Z" fill="#AEC3FF"/>
<path d="M239.407 38.6651C237.05 38.0935 235.602 35.7191 236.174 33.3616C236.745 31.0042 239.12 29.5564 241.477 30.1279C243.834 30.6994 245.282 33.0738 244.711 35.4313C244.139 37.7888 241.765 39.2366 239.407 38.6651Z" fill="#9DB0F4"/>
<path d="M236.106 45.0928C235.687 42.7033 237.284 40.4267 239.673 40.0078C242.063 39.5888 244.339 41.1862 244.758 43.5756C245.177 45.9651 243.58 48.2417 241.191 48.6607C238.801 49.0796 236.524 47.4822 236.106 45.0928Z" fill="#9DB0F4"/>
<path d="M236.106 25.0553C235.712 22.6616 237.333 20.4017 239.726 20.0075C242.12 19.6133 244.38 21.2341 244.774 23.6277C245.168 26.0214 243.547 28.2814 241.154 28.6755C238.76 29.0697 236.5 27.4489 236.106 25.0553Z" fill="#F99746"/>
<path d="M148.178 130.888H49.4194L16.0662 127.883C16.0662 127.883 22.0346 113.013 23.6615 112.79C25.2884 112.566 145.05 112.79 145.05 112.79L148.178 130.888Z" fill="#1D2949"/>
<path d="M1.81696 129.424C4.27483 130.43 19.1312 130.653 19.1312 130.653C19.1312 130.653 18.7955 112.445 34.0994 114.567C49.402 116.69 46.7268 131.802 46.7268 131.802L120.298 133.115C120.298 133.115 119.103 113.92 135.348 115.94C148.843 117.617 145.376 133.043 145.376 133.043C152.339 133.402 156.071 132.352 158.051 131.257C158.052 131.257 158.052 131.255 158.052 131.255C159.535 129.165 158.671 127.942 158.584 127.727C158.499 127.513 158.799 123.955 158.842 123.441C158.866 123.151 158.239 122.414 157.686 121.825C157.229 121.338 157.199 120.59 157.619 120.072L158.355 119.164C159.194 118.128 159.386 116.711 158.853 115.489L157.391 112.142C157.391 112.142 157.391 112.142 157.39 112.141C152.622 103.95 115.24 101.715 115.24 101.715C109.563 98.4522 104.856 96.0264 101.173 94.2644C95.2995 91.4542 88.6025 88.7135 82.1217 88.0729C64.5747 86.3378 50.1466 88.3031 46.6098 88.8767C42.4774 89.5469 21.6998 98.5949 20.1357 99.377C18.573 100.159 5.81821 101.219 4.17982 101.418C2.5412 101.616 2.59012 103.255 2.59012 103.255L2.36502 104.708L1.50845 110.243L1.3 111.595C0.107834 112.191 0.106537 113.897 0.106537 113.897C0.106537 113.897 -0.639511 128.418 1.81696 129.424Z" fill="#739AF0"/>
<path d="M125.164 135.895C120.739 131.47 120.739 124.297 125.164 119.873C129.588 115.449 136.761 115.449 141.185 119.873C145.61 124.297 145.61 131.47 141.185 135.895C136.761 140.319 129.588 140.319 125.164 135.895Z" fill="#2C3A64"/>
<path d="M133.172 136.743C138.057 136.743 142.032 132.769 142.032 127.883C142.032 122.998 138.057 119.024 133.172 119.024C128.287 119.024 124.312 122.998 124.312 127.883C124.312 132.769 128.286 136.743 133.172 136.743ZM133.172 119.843C137.606 119.843 141.213 123.45 141.213 127.883C141.213 132.317 137.606 135.924 133.172 135.924C128.738 135.924 125.131 132.317 125.131 127.883C125.131 123.45 128.738 119.843 133.172 119.843Z" fill="#AFCDFB"/>
<path d="M131.659 136.343H134.834L133.815 127.642L134.979 119.379L131.351 119.603L132.561 127.642L131.659 136.343Z" fill="#AFCDFB"/>
<path d="M139.758 133.405L141.345 130.656L133.301 127.189L126.726 122.05L125.107 125.304L132.674 128.275L139.758 133.405Z" fill="#AFCDFB"/>
<path d="M141.031 124.605L139.287 121.953L132.577 127.584L125.033 131.151L127.213 134.059L133.266 128.632L141.031 124.605Z" fill="#AFCDFB"/>
<path d="M136.145 127.868C136.145 126.235 134.822 124.912 133.189 124.912C131.557 124.912 130.233 126.235 130.233 127.868C130.233 129.5 131.557 130.824 133.189 130.824C134.822 130.824 136.145 129.5 136.145 127.868Z" fill="#AFCDFB"/>
<path d="M21.6831 130.511C20.2453 124.422 24.0159 118.32 30.1051 116.883C36.1942 115.445 42.2961 119.215 43.7339 125.305C45.1717 131.394 41.4011 137.496 35.312 138.934C29.2228 140.371 23.121 136.601 21.6831 130.511Z" fill="#2C3A64"/>
<path d="M32.716 136.743C37.6014 136.743 41.5759 132.769 41.5759 127.883C41.5759 122.998 37.6014 119.024 32.716 119.024C27.8308 119.024 23.8562 122.998 23.8562 127.883C23.8562 132.769 27.8308 136.743 32.716 136.743ZM32.716 119.843C37.1498 119.843 40.7569 123.45 40.7569 127.883C40.7569 132.317 37.1498 135.924 32.716 135.924C28.2823 135.924 24.6753 132.317 24.6753 127.883C24.6753 123.45 28.2824 119.843 32.716 119.843Z" fill="#AFCDFB"/>
<path d="M31.2036 136.342H34.3778L33.3589 127.642L34.5235 119.379L30.8956 119.603L32.1048 127.642L31.2036 136.342Z" fill="#AFCDFB"/>
<path d="M39.3025 133.405L40.8893 130.656L32.8451 127.189L26.2704 122.05L24.6508 125.304L32.2181 128.275L39.3025 133.405Z" fill="#AFCDFB"/>
<path d="M40.5751 124.605L38.8311 121.953L32.1214 127.584L24.5773 131.151L26.7573 134.059L32.8105 128.632L40.5751 124.605Z" fill="#AFCDFB"/>
<path d="M35.6894 127.868C35.6894 126.235 34.366 124.912 32.7335 124.912C31.1008 124.912 29.7774 126.235 29.7774 127.868C29.7774 129.5 31.1008 130.824 32.7335 130.824C34.366 130.824 35.6894 129.5 35.6894 127.868Z" fill="#AFCDFB"/>
<path d="M144.115 113.189L147.023 116.341C147.441 116.794 148.029 117.051 148.644 117.051H157.563C158.089 117.051 158.421 116.485 158.165 116.026L157.911 115.571C157.595 115.007 157.207 114.499 156.759 114.058C156.758 114.057 156.757 114.057 156.757 114.057C155.508 112.823 153.807 112.104 152.001 112.104H144.59C144.027 112.104 143.733 112.775 144.115 113.189Z" fill="#AFCDFB"/>
<path d="M153.59 127.883H156.12C156.957 127.883 157.728 128.336 158.136 129.067L158.223 129.222C158.311 129.379 158.197 129.572 158.018 129.572H154.974C154.764 129.572 154.563 129.484 154.421 129.329L153.428 128.253C153.298 128.112 153.398 127.883 153.59 127.883Z" fill="#1D2949"/>
<path d="M31.0901 100.642L68.908 101.54C69.6497 101.558 70.2596 100.962 70.2596 100.221V91.5078C70.2596 90.8219 69.6988 90.2693 69.0129 90.2791C52.8862 90.5031 47.3595 90.9527 44.045 92.0961C41.1218 93.1046 34.2856 97.2517 30.7521 99.3563C30.1563 99.7115 30.3961 100.626 31.0901 100.642Z" fill="#AFCDFB"/>
<path d="M73.5506 90.2224C72.937 90.2291 72.3367 90.2365 71.7491 90.244V101.608L108.233 102.474C108.708 102.486 108.905 101.87 108.511 101.604C104.248 98.7307 89.9699 90.0362 73.5506 90.2224Z" fill="#AFCDFB"/>
<path d="M31.219 100.645L31.2392 100.646V99.0667C31.1104 99.1441 30.9845 99.2186 30.8631 99.2908C30.2344 99.6647 30.4876 100.628 31.219 100.645Z" fill="#AFCDFB"/>
<path d="M70.2596 102.067L74.7278 101.713L74.4299 89.5591H70.2596V102.067Z" fill="#739AF0"/>
<path d="M41.9601 102.067H44.0453V91.153L41.9601 92.4042V102.067Z" fill="#739AF0"/>
<path d="M103.68 98.6548L102.568 102.34L108.654 102.484C109.009 102.493 109.162 102.037 108.874 101.83C107.5 100.842 104.953 99.0811 103.68 98.6548Z" fill="#2C3A64"/>
<path d="M108.918 102.788C109.167 102.788 109.384 102.631 109.462 102.393C109.542 102.152 109.455 101.891 109.246 101.746L109.119 101.658C108.988 101.567 108.84 101.467 108.678 101.357C108.544 101.267 108.401 101.172 108.249 101.071L108.018 100.92C107.844 100.805 107.659 100.686 107.462 100.561C107.323 100.472 107.178 100.38 107.028 100.286L107.004 100.27C106.982 100.257 106.961 100.243 106.939 100.23C106.813 100.152 106.68 100.069 106.542 99.9845L106.512 99.966C106.467 99.9381 106.421 99.9098 106.375 99.882C106.307 99.8403 106.236 99.7965 106.163 99.7529C106.063 99.6922 105.961 99.631 105.858 99.5688C105.566 99.3931 105.251 99.2077 104.924 99.0186C104.823 98.9599 104.72 98.9006 104.615 98.8407C104.409 98.7219 104.197 98.602 103.979 98.4803L103.825 98.3944C103.386 98.1501 102.94 97.9079 102.502 97.6746L102.357 97.5985C102.291 97.5634 102.223 97.528 102.156 97.4922C101.319 97.0539 100.46 96.6241 99.5999 96.2137L99.3327 96.0872C99.0645 95.9603 98.7924 95.834 98.5156 95.7075C98.4242 95.6652 98.3308 95.6229 98.2365 95.5808C98.0526 95.4968 97.8644 95.4128 97.674 95.3291L97.3889 95.2037C97.1049 95.0785 96.802 94.9482 96.4638 94.8058C96.2886 94.7325 96.1125 94.6594 95.9355 94.5862C94.7429 94.0945 93.5277 93.6325 92.3226 93.2128L92.0588 93.1212C91.9596 93.0869 91.8597 93.0531 91.76 93.0196L91.3842 92.8936C91.2827 92.8598 91.181 92.8266 91.0794 92.7934L91.0674 92.7897C90.9616 92.7546 90.8548 92.7199 90.7476 92.6861C90.5539 92.6242 90.3593 92.562 90.1634 92.5016C90.0302 92.4599 89.8953 92.4186 89.7597 92.3774C89.5529 92.3152 89.3463 92.2531 89.1377 92.192L88.7915 92.0923C88.5736 92.0301 88.3549 91.9685 88.1347 91.9088C87.6994 91.7891 87.2555 91.6727 86.8165 91.5633L86.7901 91.5565C86.7511 91.5465 86.7125 91.5368 86.6732 91.5274C86.4865 91.4809 86.2953 91.4345 86.1033 91.3894C85.9902 91.3621 85.8749 91.3349 85.7587 91.3086L85.6721 91.2887C85.5861 91.2688 85.4998 91.249 85.4137 91.23C85.2991 91.2041 85.1837 91.1786 85.0678 91.1532C84.9517 91.1277 84.8357 91.103 84.7198 91.0783C84.6025 91.0535 84.4857 91.0295 84.3688 91.0056C84.2534 90.9812 84.1358 90.9577 84.0175 90.9345L83.9985 90.9308C83.8874 90.9087 83.7761 90.8869 83.665 90.8657C83.5543 90.8441 83.4435 90.8232 83.3318 90.8021C83.2063 90.7789 83.0813 90.7563 82.9554 90.7339C82.8754 90.7193 82.7944 90.7052 82.7133 90.6911L82.5994 90.6713C82.3616 90.6305 82.1241 90.5908 81.8859 90.5534C81.7673 90.5343 81.6471 90.5159 81.5266 90.4972L81.5083 90.4944C81.2974 90.4627 81.0863 90.4321 80.8751 90.403C80.4813 90.3485 80.0853 90.298 79.698 90.2532L79.6726 90.2503C79.5637 90.2379 79.4553 90.2253 79.3464 90.214C79.2708 90.2053 79.1908 90.1969 79.1114 90.1893C79.0343 90.18 78.9495 90.1716 78.8647 90.1638C78.7759 90.1544 78.6827 90.1453 78.5894 90.137C78.4676 90.1251 78.3435 90.114 78.2187 90.1034C78.1009 90.093 77.9812 90.0831 77.8616 90.0741C77.7667 90.0665 77.6759 90.0592 77.5845 90.0524L77.0549 90.0165C76.9505 90.0097 76.8464 90.0038 76.7412 89.9977L76.6951 89.9953C76.5808 89.9887 76.4633 89.9827 76.3466 89.9774C76.2545 89.973 76.1606 89.9684 76.0666 89.9648L76.0577 89.9643C75.9737 89.9608 75.8903 89.957 75.8063 89.9542L75.5989 89.9468C75.5164 89.9442 75.434 89.9417 75.3515 89.9394C75.026 89.9293 74.7224 90.05 74.4907 90.2756C74.2592 90.5008 74.1317 90.8028 74.1317 91.1256V100.543C74.1317 101.326 74.7684 101.978 75.5508 101.997L108.903 102.788C108.908 102.788 108.913 102.788 108.918 102.788ZM103.41 98.8453L103.617 98.9605C103.857 99.0944 104.091 99.2263 104.318 99.3573C104.423 99.4171 104.524 99.4757 104.625 99.5341C104.95 99.7219 105.261 99.9052 105.551 100.08C105.655 100.142 105.756 100.203 105.855 100.263C105.926 100.305 105.996 100.348 106.065 100.391C106.112 100.419 106.156 100.446 106.199 100.473L106.231 100.492C106.367 100.576 106.499 100.658 106.627 100.738L106.712 100.79C106.859 100.884 107.003 100.975 107.142 101.063C107.336 101.187 107.519 101.305 107.691 101.417L107.92 101.568C108.071 101.668 108.213 101.762 108.345 101.851C108.504 101.958 108.65 102.058 108.78 102.148L108.841 102.19L102.575 102.042L75.5657 101.4C75.1038 101.389 74.7281 101.005 74.7281 100.543V91.1248C74.7281 90.9641 74.7916 90.8139 74.9068 90.7018C75.0222 90.5894 75.1739 90.5302 75.3359 90.5342C75.4172 90.5364 75.4986 90.5388 75.5798 90.5415L75.7872 90.5489C75.8688 90.5517 75.9505 90.5554 76.0327 90.5588L76.0424 90.5593C76.1356 90.563 76.2278 90.5674 76.3193 90.5718C76.4344 90.5771 76.5493 90.5828 76.6634 90.5895L76.7097 90.5919C76.8111 90.5977 76.9139 90.6037 77.0167 90.6103L77.5422 90.6459C77.6315 90.6525 77.7206 90.6596 77.8107 90.667C77.9343 90.6762 78.0514 90.6858 78.1679 90.6961C78.2914 90.7066 78.413 90.7177 78.5347 90.7295C78.6268 90.7377 78.7168 90.7465 78.8068 90.756C78.8904 90.7636 78.9694 90.7716 79.0479 90.781C79.1302 90.7888 79.2065 90.7969 79.282 90.8056C79.3923 90.817 79.4983 90.8292 79.6048 90.8415L79.6299 90.8443C80.0127 90.8888 80.4044 90.9386 80.794 90.9925C81.0029 91.0213 81.2118 91.0517 81.4192 91.0829L81.4363 91.0855C81.5554 91.1038 81.6743 91.1222 81.7927 91.1412C82.0294 91.1784 82.2641 91.2177 82.498 91.2577L82.6116 91.2775C82.6911 91.2914 82.7704 91.3051 82.8499 91.3196C82.9756 91.342 83.0993 91.3642 83.223 91.3872C83.3329 91.4078 83.4424 91.4286 83.5527 91.4499C83.6637 91.4712 83.7736 91.4929 83.8835 91.5146L83.9025 91.5183C84.0182 91.5411 84.1331 91.564 84.2479 91.5883C84.3653 91.6124 84.4808 91.6361 84.5965 91.6605C84.711 91.6849 84.8257 91.7093 84.9407 91.7345C85.0555 91.7598 85.1695 91.7849 85.2843 91.8108C85.3702 91.8298 85.4547 91.8492 85.5389 91.8686L85.6268 91.8888C85.7406 91.9147 85.8533 91.9411 85.9659 91.9684C86.1574 92.0132 86.3458 92.0591 86.5329 92.1057C86.5721 92.1151 86.6078 92.1241 86.6437 92.1333L86.6716 92.1404C87.1074 92.2491 87.5466 92.3643 87.9781 92.4829C88.1966 92.5425 88.413 92.603 88.6285 92.6646L88.9726 92.7638C89.1775 92.8239 89.3832 92.8855 89.588 92.9472C89.7214 92.9877 89.8544 93.0283 89.9871 93.0698C90.1823 93.1303 90.375 93.1918 90.5676 93.2533C90.6728 93.2866 90.7775 93.3204 90.882 93.355L90.895 93.3592C90.9953 93.3919 91.096 93.4249 91.1963 93.4583L91.5702 93.5836C91.6683 93.6167 91.7668 93.6499 91.8643 93.6837L92.1267 93.7748C93.3217 94.191 94.5265 94.6491 95.7086 95.1364C95.8843 95.209 96.0597 95.2818 96.2335 95.3547C96.5682 95.4954 96.868 95.6245 97.1498 95.7486L97.4343 95.8736C97.6223 95.9565 97.8081 96.0394 97.9916 96.1231C98.0854 96.165 98.1764 96.2062 98.267 96.2481C98.5429 96.374 98.8126 96.4994 99.0789 96.6254L99.3453 96.7515C100.197 97.1581 101.05 97.5846 101.879 98.0186C101.945 98.0539 102.013 98.0896 102.08 98.1251L102.223 98.2005C102.616 98.41 103.015 98.6265 103.41 98.8453Z" fill="#1D2949"/>
<path d="M41.3367 101.196C41.5591 101.196 41.7711 101.109 41.9355 100.949C42.1188 100.77 42.2239 100.515 42.2239 100.25V93.8915C42.2239 93.5297 42.1704 93.0679 41.8775 92.8854C41.6123 92.72 41.1662 92.8403 40.8865 92.9775C40.5753 93.1304 40.3582 93.2399 40.2414 93.303C40.2288 93.3093 40.2118 93.3187 40.1946 93.3282L40.0678 93.3973C38.4831 94.2629 36.2268 95.6254 33.3615 97.447C33.2396 97.524 33.1181 97.6015 32.9977 97.6783C32.7087 97.8625 32.4276 98.0427 32.1573 98.2166L31.1523 98.8652C30.9776 98.9784 30.8101 99.0875 30.6503 99.1916C30.6284 99.2055 30.6035 99.2217 30.579 99.2376L30.5571 99.2518C30.2223 99.4699 30.074 99.8854 30.1875 100.286C30.2951 100.666 30.6062 100.918 30.9801 100.928L31.0895 100.93L41.3149 101.196C41.3221 101.196 41.3293 101.196 41.3367 101.196ZM41.2809 93.4119C41.3667 93.4119 41.4357 93.4442 41.4774 93.4701C41.6144 93.5557 41.6964 93.7131 41.6964 93.8915V100.25C41.6964 100.374 41.6494 100.491 41.5671 100.571C41.5002 100.636 41.4159 100.67 41.3282 100.669L30.9935 100.4C30.7827 100.395 30.7117 100.202 30.6949 100.143C30.6562 100.006 30.6721 99.8064 30.8442 99.6943L30.8662 99.6801C30.889 99.6652 30.9124 99.6502 30.9354 99.6355C31.0977 99.5297 31.2648 99.4209 31.4391 99.3079L32.4422 98.6607C32.7124 98.4868 32.9929 98.3069 33.2814 98.1231C33.401 98.0468 33.5218 97.9697 33.6438 97.8927C36.5001 96.077 38.7461 94.7204 40.3203 93.8603L40.4487 93.7905C40.4616 93.7832 40.4743 93.7763 40.4873 93.7696C40.6015 93.708 40.8181 93.5987 41.119 93.451C41.1771 93.4226 41.2318 93.4119 41.2809 93.4119Z" fill="#1D2949"/>
<path d="M103.68 98.6548L102.568 102.34L108.654 102.484C109.009 102.493 109.162 102.037 108.874 101.83C107.5 100.842 104.953 99.0811 103.68 98.6548Z" fill="#2C3A64"/>
<path d="M68.9419 101.838C69.3659 101.838 69.7651 101.676 70.0698 101.379C70.3845 101.072 70.5577 100.66 70.5577 100.221V91.5076C70.5577 91.0961 70.3963 90.7103 70.1031 90.4211C69.8096 90.1317 69.4209 89.9782 69.009 89.9812C52.3637 90.2129 47.2093 90.5904 43.9403 91.8175L43.7471 91.89V101.241L68.9014 101.838C68.9147 101.838 68.9283 101.838 68.9419 101.838ZM69.0307 90.5769C69.2773 90.5769 69.509 90.6719 69.6848 90.8453C69.8635 91.0215 69.9619 91.2567 69.9619 91.5076V100.221C69.9619 100.499 69.8525 100.758 69.6538 100.952C69.4552 101.146 69.1909 101.25 68.9156 101.242L44.3428 100.659V92.3048C47.5236 91.1758 52.979 90.8 69.0173 90.577C69.0217 90.5769 69.0263 90.5769 69.0307 90.5769Z" fill="#1D2949"/>
<path d="M1.50888 110.244H8.62913C9.68839 110.244 10.6892 109.758 11.3443 108.926L14.0371 105.504C14.2909 105.181 14.0611 104.708 13.6507 104.708H2.36521L1.50888 110.244Z" fill="#A9453D"/>
<path d="M72.0675 90.1344L72.5063 128.289L72.2084 128.292L71.7696 90.1378L72.0675 90.1344Z" fill="#1D2949"/>
<path d="M46.839 127.725L120.447 129.198L120.441 129.496L46.8331 128.023L46.839 127.725Z" fill="#1D2949"/>
<path d="M76.4337 109.513C76.4337 109.917 78.2341 110.244 80.4549 110.244C82.6757 110.244 84.4761 109.917 84.4761 109.513C84.4761 109.11 82.6757 108.783 80.4549 108.783C78.2341 108.783 76.4337 109.11 76.4337 109.513Z" fill="#2C3A64"/>
<path d="M38.9814 109.513C38.9814 109.917 40.7819 110.244 43.0027 110.244C45.2235 110.244 47.0238 109.917 47.0238 109.513C47.0238 109.11 45.2234 108.783 43.0027 108.783C40.7818 108.783 38.9814 109.11 38.9814 109.513Z" fill="#2C3A64"/>
<path d="M49.7059 127.891L50.0032 127.875C49.7977 124.082 48.6735 120.885 46.6618 118.373C45.0523 116.363 42.8762 114.788 40.1936 113.69C36.1128 112.02 32.0714 111.976 31.2388 111.988V100.642H30.941V112.296L31.096 112.289C31.141 112.287 35.5921 112.126 40.0895 113.969C42.7224 115.048 44.8567 116.594 46.4327 118.563C48.4026 121.025 49.5039 124.164 49.7059 127.891Z" fill="#1D2949"/>
<path d="M111.472 129.157C111.587 119.316 111.039 112.506 110.559 108.527C110.038 104.209 109.481 102.191 109.476 102.172L109.189 102.252C109.211 102.331 111.394 110.366 111.174 129.154L111.472 129.157Z" fill="#1D2949"/>
<path d="M69.0128 90.1299H74.8395V90.4278H69.0128V90.1299Z" fill="#1D2949"/>
<path d="M152.368 117.051H157.563C158.089 117.051 158.421 116.485 158.165 116.026L157.911 115.571C157.595 115.007 157.207 114.499 156.759 114.058C156.758 114.057 156.757 114.057 156.757 114.057L153.612 114.578L154.855 115.938L153.369 116.238L152.368 117.051Z" fill="#2C3A64"/>
<path d="M154.04 108.65C154.161 108.65 154.279 108.594 154.355 108.488C154.478 108.315 154.438 108.074 154.265 107.95C154.24 107.933 153.63 107.5 151.669 106.306C149.611 105.053 147.647 104.793 146.349 104.707C145.55 104.654 144.762 103.496 144.291 102.805C144.118 102.551 143.982 102.351 143.863 102.222C143.677 102.02 143.484 101.811 129.256 101.54C122.304 101.407 113.72 101.329 115.244 101.329C115.246 101.329 113.657 101.329 113.655 101.329C113.444 101.329 113.436 101.834 113.398 102.042C112.928 104.609 115.715 103.332 115.928 103.334C126.547 103.45 141.909 102.5 143.35 102.811C143.431 102.912 143.539 103.072 143.653 103.239C144.238 104.099 145.123 105.398 146.298 105.477C147.515 105.558 149.355 105.8 151.267 106.965C153.195 108.138 153.81 108.574 153.816 108.578C153.884 108.627 153.963 108.65 154.04 108.65Z" fill="#739AF0"/>
<path d="M98.2494 103.913H102.976C103.825 103.913 104.519 103.218 104.519 102.37V101.083C104.519 100.235 103.825 99.54 102.976 99.54H98.2494C97.4006 99.54 96.7061 100.235 96.7061 101.083V102.37C96.706 103.218 97.4005 103.913 98.2494 103.913Z" fill="#6390E0"/>
<path d="M335.904 130.366H237.145L203.792 127.362C203.792 127.362 209.76 112.491 211.387 112.268C213.014 112.045 332.776 112.268 332.776 112.268L335.904 130.366Z" fill="#1D2949"/>
<path d="M188.236 115.549C188.584 116.758 189.236 117.02 189.235 119.626C189.234 120.65 189.006 121.941 189.52 123.077C189.744 123.569 191.128 124.39 190.742 126.035C190.742 126.035 193.025 127.803 193.122 128.028C193.218 128.253 193.379 129.507 193.379 129.507C195.837 130.513 206.856 130.131 206.856 130.131C206.856 130.131 206.522 111.924 221.825 114.047C237.127 116.169 234.453 131.281 234.453 131.281L308.025 132.593C308.025 132.593 306.83 113.4 323.073 115.418C336.568 117.095 333.102 132.521 333.102 132.521C346.557 133.217 347.947 128.648 347.947 128.648V126.763H347.103V121.797H347.947V118.099L345.116 111.62C343.924 109.572 340.694 107.896 336.518 106.536C323.994 102.451 302.966 101.194 302.966 101.194C297.288 97.93 292.581 95.5043 288.898 93.7423C283.025 90.9321 276.329 88.1913 269.848 87.5509C252.301 85.8172 237.872 87.7824 234.335 88.3559C230.202 89.0261 209.426 98.0728 207.862 98.8548C206.298 99.6367 193.543 100.698 191.905 100.896C190.266 101.094 190.316 102.732 190.316 102.732L190.091 104.187L190.356 105.038L191.579 104.613L191.063 106.453L191.224 107.225L189.581 107.486L189.235 109.723L189.025 111.073C187.834 111.67 188.055 114.925 188.236 115.549Z" fill="#F99746"/>
<path d="M309.755 129.44C308.609 123.289 312.666 117.373 318.818 116.227C324.969 115.081 330.885 119.138 332.031 125.289C333.177 131.44 329.12 137.356 322.969 138.502C316.817 139.648 310.902 135.591 309.755 129.44Z" fill="#2C3A64"/>
<path d="M320.898 136.222C325.783 136.222 329.758 132.247 329.758 127.362C329.758 122.477 325.783 118.502 320.898 118.502C316.012 118.502 312.038 122.477 312.038 127.362C312.038 132.247 316.012 136.222 320.898 136.222ZM320.898 119.321C325.331 119.321 328.938 122.928 328.938 127.362C328.938 131.796 325.331 135.403 320.898 135.403C316.464 135.403 312.857 131.796 312.857 127.362C312.857 122.928 316.464 119.321 320.898 119.321Z" fill="#AFCDFB"/>
<path d="M319.385 135.821H322.56L321.541 127.121L322.705 118.858L319.077 119.081L320.287 127.121L319.385 135.821Z" fill="#AFCDFB"/>
<path d="M327.484 132.884L329.071 130.134L321.027 126.668L314.452 121.528L312.833 124.782L320.4 127.754L327.484 132.884Z" fill="#AFCDFB"/>
<path d="M328.757 124.083L327.013 121.431L320.303 127.062L312.759 130.629L314.939 133.537L320.992 128.11L328.757 124.083Z" fill="#AFCDFB"/>
<path d="M323.871 127.346C323.871 125.714 322.548 124.39 320.915 124.39C319.283 124.39 317.959 125.714 317.959 127.346C317.959 128.979 319.283 130.302 320.915 130.302C322.548 130.302 323.871 128.979 323.871 127.346Z" fill="#AFCDFB"/>
<path d="M209.595 130.647C207.782 124.658 211.167 118.334 217.155 116.521C223.144 114.707 229.468 118.092 231.281 124.08C233.095 130.069 229.71 136.393 223.721 138.207C217.733 140.02 211.408 136.635 209.595 130.647Z" fill="#2C3A64"/>
<path d="M220.442 136.222C225.327 136.222 229.302 132.247 229.302 127.362C229.302 122.477 225.327 118.502 220.442 118.502C215.556 118.502 211.582 122.477 211.582 127.362C211.582 132.247 215.556 136.222 220.442 136.222ZM220.442 119.321C224.875 119.321 228.483 122.928 228.483 127.362C228.483 131.796 224.875 135.403 220.442 135.403C216.008 135.403 212.401 131.796 212.401 127.362C212.401 122.928 216.008 119.321 220.442 119.321Z" fill="#AFCDFB"/>
<path d="M218.93 135.821H222.104L221.085 127.121L222.249 118.858L218.622 119.081L219.831 127.121L218.93 135.821Z" fill="#AFCDFB"/>
<path d="M227.028 132.884L228.615 130.134L220.571 126.668L213.996 121.528L212.377 124.782L219.944 127.754L227.028 132.884Z" fill="#AFCDFB"/>
<path d="M228.301 124.083L226.557 121.431L219.847 127.062L212.303 130.629L214.483 133.537L220.536 128.11L228.301 124.083Z" fill="#AFCDFB"/>
<path d="M223.415 127.346C223.415 125.714 222.092 124.39 220.459 124.39C218.827 124.39 217.503 125.714 217.503 127.346C217.503 128.979 218.827 130.302 220.459 130.302C222.092 130.302 223.415 128.979 223.415 127.346Z" fill="#AFCDFB"/>
<path d="M332.316 111.583H339.727C342.179 111.583 344.44 112.909 345.637 115.05L345.891 115.504C346.147 115.964 345.815 116.529 345.289 116.529H336.37C335.755 116.529 335.167 116.272 334.749 115.819L331.841 112.667C331.459 112.253 331.752 111.583 332.316 111.583Z" fill="#F9DDBF"/>
<path d="M341.316 127.362H343.845C344.682 127.362 345.454 127.815 345.862 128.545L345.949 128.7C346.037 128.857 345.923 129.05 345.744 129.05H342.7C342.49 129.05 342.289 128.962 342.147 128.808L341.154 127.732C341.023 127.591 341.124 127.362 341.316 127.362Z" fill="#1D2949"/>
<path d="M218.816 100.121L256.634 101.019C257.375 101.037 257.985 100.44 257.985 99.6993V90.9863C257.985 90.3004 257.425 89.7478 256.739 89.7574C240.612 89.9816 235.085 90.4311 231.771 91.5746C228.848 92.5831 222.011 96.7301 218.478 98.8348C217.882 99.1901 218.122 100.105 218.816 100.121Z" fill="#AFCDFB"/>
<path d="M261.276 89.7009C260.663 89.7077 260.062 89.7151 259.475 89.7227V101.087L295.959 101.953C296.434 101.964 296.631 101.348 296.237 101.083C291.974 98.2093 277.696 89.5148 261.276 89.7009Z" fill="#AFCDFB"/>
<path d="M218.945 100.124L218.965 100.125V98.5452C218.836 98.6226 218.71 98.6971 218.589 98.7693C217.96 99.1431 218.214 100.107 218.945 100.124Z" fill="#AFCDFB"/>
<path d="M257.985 101.545L262.454 101.191L262.156 89.0376H257.985V101.545Z" fill="#F99746"/>
<path d="M229.686 101.545H231.771V90.6313L229.686 91.8826V101.545Z" fill="#F99746"/>
<path d="M291.406 98.1334L290.294 101.818L296.38 101.963C296.735 101.971 296.888 101.516 296.6 101.309C295.226 100.32 292.679 98.5597 291.406 98.1334Z" fill="#2C3A64"/>
<path d="M296.644 102.266C296.893 102.266 297.11 102.109 297.188 101.872C297.267 101.63 297.18 101.37 296.972 101.224L296.845 101.137C296.713 101.046 296.566 100.945 296.404 100.835C296.27 100.745 296.127 100.651 295.974 100.55L295.744 100.398C295.569 100.284 295.384 100.165 295.188 100.039C295.048 99.9506 294.904 99.8588 294.754 99.764L294.729 99.7488C294.708 99.7354 294.686 99.7219 294.665 99.7089C294.539 99.6301 294.405 99.5469 294.268 99.463L294.238 99.4445C294.193 99.4165 294.147 99.3883 294.101 99.3605C294.033 99.3188 293.962 99.275 293.889 99.2314C293.789 99.1706 293.687 99.1094 293.583 99.0473C293.291 98.8716 292.977 98.6863 292.649 98.4972C292.548 98.4383 292.446 98.3792 292.341 98.3192C292.135 98.2003 291.922 98.0805 291.704 97.9589L291.551 97.8729C291.112 97.6285 290.666 97.3864 290.227 97.153L290.083 97.077C290.016 97.0418 289.949 97.0065 289.882 96.9707C289.045 96.5324 288.186 96.1026 287.325 95.6922L287.058 95.5657C286.79 95.4388 286.518 95.3125 286.241 95.1859C286.15 95.1437 286.056 95.1014 285.962 95.0592C285.778 94.9753 285.59 94.8914 285.4 94.8075L285.115 94.6821C284.831 94.5569 284.528 94.4266 284.19 94.2842C284.014 94.2107 283.838 94.1377 283.661 94.0645C282.469 93.5729 281.253 93.1108 280.048 92.6912L279.785 92.5996C279.685 92.5652 279.585 92.5315 279.486 92.498L279.11 92.372C279.008 92.3381 278.907 92.305 278.805 92.2718L278.793 92.268C278.687 92.2329 278.58 92.1983 278.473 92.1644C278.28 92.1025 278.085 92.0404 277.889 91.9798C277.756 91.9383 277.621 91.897 277.485 91.8557C277.279 91.7936 277.072 91.7315 276.863 91.6703L276.517 91.5706C276.299 91.5084 276.081 91.4469 275.86 91.3872C275.425 91.2675 274.981 91.1511 274.542 91.0415L274.516 91.0349C274.477 91.0249 274.438 91.015 274.399 91.0058C274.212 90.9593 274.021 90.9127 273.829 90.8677C273.716 90.8404 273.6 90.8133 273.484 90.7869L273.398 90.7669C273.312 90.7472 273.225 90.7273 273.139 90.7083C273.025 90.6824 272.909 90.6569 272.793 90.6316C272.677 90.6061 272.561 90.5814 272.445 90.5566C272.328 90.5319 272.211 90.5079 272.094 90.4839C271.979 90.4595 271.861 90.4361 271.743 90.4128L271.724 90.4092C271.613 90.3871 271.502 90.3653 271.39 90.3439C271.28 90.3223 271.169 90.3015 271.057 90.2805C270.932 90.2571 270.807 90.2346 270.681 90.2123C270.601 90.1976 270.52 90.1836 270.439 90.1695L270.325 90.1496C270.087 90.1089 269.85 90.0692 269.611 90.0318C269.493 90.0127 269.373 89.9941 269.252 89.9756L269.234 89.9728C269.023 89.9411 268.812 89.9105 268.6 89.8813C268.207 89.8269 267.811 89.7764 267.423 89.7316L267.398 89.7287C267.289 89.7161 267.181 89.7037 267.072 89.6924C266.996 89.6836 266.916 89.6753 266.837 89.6677C266.76 89.6583 266.675 89.6498 266.59 89.6421C266.501 89.6327 266.408 89.6237 266.315 89.6152C266.193 89.6034 266.069 89.5921 265.944 89.5816C265.826 89.5711 265.707 89.5614 265.587 89.5524C265.492 89.5447 265.401 89.5374 265.31 89.5307L264.78 89.4948C264.676 89.488 264.572 89.482 264.467 89.476L264.421 89.4735C264.306 89.4668 264.189 89.461 264.072 89.4557C263.98 89.4512 263.886 89.4467 263.792 89.443L263.783 89.4426C263.699 89.4391 263.616 89.4353 263.532 89.4325L263.324 89.4251C263.242 89.4225 263.16 89.4199 263.077 89.4177C262.752 89.4076 262.448 89.5282 262.216 89.7538C261.985 89.9791 261.857 90.2809 261.857 90.6039V100.022C261.857 100.804 262.494 101.456 263.277 101.475L296.629 102.267C296.634 102.266 296.639 102.266 296.644 102.266ZM291.136 98.3239L291.342 98.439C291.583 98.5731 291.817 98.7049 292.044 98.8359C292.149 98.8956 292.25 98.9542 292.351 99.0126C292.676 99.2004 292.987 99.3839 293.277 99.5584C293.381 99.6205 293.482 99.6812 293.581 99.7414C293.652 99.7841 293.722 99.8268 293.791 99.8695C293.838 99.8979 293.882 99.9249 293.925 99.9514L293.956 99.9709C294.093 100.054 294.225 100.136 294.353 100.216L294.437 100.269C294.585 100.362 294.729 100.454 294.868 100.542C295.062 100.666 295.245 100.783 295.416 100.896L295.646 101.046C295.797 101.146 295.938 101.24 296.07 101.329C296.229 101.437 296.375 101.536 296.506 101.627L296.566 101.669L290.301 101.52L263.291 100.879C262.829 100.868 262.454 100.483 262.454 100.021V90.6034C262.454 90.4427 262.517 90.2924 262.632 90.1804C262.748 90.0679 262.899 90.0087 263.061 90.0127C263.143 90.015 263.224 90.0175 263.305 90.0201L263.513 90.0274C263.594 90.0301 263.676 90.0338 263.758 90.0373L263.768 90.0378C263.861 90.0414 263.953 90.0459 264.045 90.0503C264.16 90.0555 264.275 90.0613 264.389 90.0679L264.435 90.0704C264.537 90.0762 264.639 90.0821 264.742 90.0887L265.268 90.1245C265.357 90.1309 265.446 90.1381 265.536 90.1453C265.66 90.1547 265.777 90.1643 265.893 90.1747C266.017 90.1851 266.139 90.1961 266.26 90.2079C266.352 90.2161 266.442 90.225 266.532 90.2345C266.616 90.2421 266.695 90.2501 266.773 90.2593C266.856 90.2673 266.932 90.2754 267.008 90.2841C267.118 90.2955 267.224 90.3077 267.33 90.3199L267.355 90.3228C267.738 90.3672 268.13 90.4171 268.519 90.471C268.728 90.4998 268.937 90.5302 269.145 90.5614L269.162 90.564C269.281 90.5823 269.4 90.6007 269.518 90.6197C269.755 90.6569 269.989 90.6961 270.224 90.7362L270.337 90.7559C270.417 90.7697 270.496 90.7836 270.576 90.7981C270.701 90.8204 270.825 90.8427 270.948 90.8657C271.058 90.8862 271.168 90.9071 271.278 90.9285C271.389 90.9497 271.499 90.9713 271.609 90.9931L271.628 90.9969C271.744 91.0196 271.859 91.0425 271.973 91.0668C272.091 91.0908 272.207 91.1146 272.322 91.139C272.436 91.1634 272.551 91.1878 272.666 91.213C272.781 91.2381 272.895 91.2634 273.01 91.2893C273.096 91.3082 273.18 91.3276 273.264 91.347L273.352 91.3673C273.466 91.3932 273.579 91.4196 273.691 91.4469C273.883 91.4917 274.071 91.5375 274.258 91.5842C274.297 91.5936 274.333 91.6026 274.369 91.6118L274.397 91.6189C274.833 91.7277 275.272 91.8427 275.704 91.9614C275.922 92.0209 276.138 92.0816 276.354 92.1431L276.698 92.2423C276.903 92.3024 277.109 92.364 277.313 92.4257C277.447 92.4662 277.58 92.5068 277.713 92.5483C277.908 92.6087 278.1 92.6702 278.293 92.7317C278.398 92.765 278.503 92.7989 278.607 92.8335L278.62 92.8377C278.721 92.8704 278.821 92.9033 278.922 92.9367L279.296 93.0621C279.394 93.0952 279.492 93.1283 279.59 93.1622L279.852 93.2533C281.047 93.6694 282.252 94.1275 283.434 94.6149C283.61 94.6875 283.785 94.7602 283.959 94.833C284.293 94.9739 284.593 95.1028 284.875 95.2271L285.159 95.3521C285.348 95.4349 285.533 95.5179 285.717 95.6015C285.811 95.6435 285.902 95.6847 285.992 95.7266C286.268 95.8525 286.538 95.9778 286.804 96.1038L287.07 96.23C287.922 96.6366 288.775 97.0631 289.604 97.497C289.67 97.5325 289.738 97.5681 289.805 97.6036L289.948 97.679C290.342 97.8885 290.741 98.1051 291.136 98.3239Z" fill="#1D2949"/>
<path d="M229.063 100.675C229.285 100.675 229.497 100.587 229.661 100.427C229.845 100.248 229.95 99.994 229.95 99.729V93.37C229.95 93.0083 229.896 92.5464 229.603 92.3638C229.338 92.1985 228.892 92.3189 228.612 92.456C228.301 92.6089 228.084 92.7183 227.967 92.7815C227.955 92.7879 227.937 92.7972 227.92 92.8066L227.793 92.8757C226.209 93.7414 223.952 95.1039 221.087 96.9255C220.965 97.0025 220.844 97.0799 220.723 97.1567C220.434 97.341 220.153 97.5211 219.883 97.6952L218.878 98.3437C218.703 98.4568 218.536 98.5659 218.376 98.6702C218.354 98.6839 218.329 98.7001 218.305 98.7162L218.283 98.7304C217.948 98.9484 217.8 99.3639 217.913 99.7646C218.021 100.145 218.332 100.397 218.706 100.406L218.815 100.409L229.04 100.674C229.048 100.675 229.055 100.675 229.063 100.675ZM229.007 92.8905C229.092 92.8905 229.162 92.9228 229.203 92.9487C229.34 93.0342 229.422 93.1916 229.422 93.37V99.729C229.422 99.8526 229.375 99.9692 229.293 100.049C229.226 100.115 229.142 100.148 229.054 100.147L218.719 99.8788C218.508 99.8733 218.437 99.6801 218.421 99.6209C218.382 99.4844 218.398 99.285 218.57 99.1728L218.592 99.1586C218.615 99.1437 218.638 99.1287 218.661 99.1141C218.824 99.0082 218.991 98.8994 219.165 98.7864L220.168 98.1392C220.438 97.9653 220.719 97.7854 221.007 97.6017C221.127 97.5253 221.247 97.4481 221.369 97.3712C224.226 95.5554 226.472 94.1988 228.046 93.3388L228.174 93.2689C228.187 93.2618 228.2 93.2548 228.213 93.2482C228.327 93.1865 228.544 93.0771 228.845 92.9294C228.903 92.9009 228.958 92.8905 229.007 92.8905Z" fill="#1D2949"/>
<path d="M291.406 98.1334L290.294 101.818L296.38 101.963C296.735 101.971 296.888 101.516 296.6 101.309C295.226 100.32 292.679 98.5597 291.406 98.1334Z" fill="#2C3A64"/>
<path d="M256.668 101.317C257.092 101.317 257.491 101.155 257.796 100.857C258.11 100.55 258.284 100.139 258.284 99.6996V90.9862C258.284 90.5746 258.122 90.1888 257.829 89.8998C257.536 89.6104 257.147 89.4567 256.735 89.4599C240.09 89.6914 234.935 90.0689 231.666 91.2962L231.473 91.3687V100.72L256.627 101.317C256.641 101.317 256.654 101.317 256.668 101.317ZM256.757 90.0556C257.003 90.0556 257.235 90.1506 257.411 90.3238C257.589 90.5001 257.688 90.7353 257.688 90.9861V99.6995C257.688 99.977 257.578 100.237 257.38 100.431C257.181 100.625 256.917 100.729 256.641 100.721L232.069 100.138V91.7832C235.249 90.6543 240.705 90.2786 256.743 90.0554C256.748 90.0556 256.752 90.0556 256.757 90.0556Z" fill="#1D2949"/>
<path d="M189.235 109.722H196.355C197.415 109.722 198.415 109.236 199.07 108.404L201.763 104.982C202.017 104.659 201.788 104.187 201.376 104.187H190.091L190.356 105.038L191.579 104.613L191.064 106.453L191.224 107.225L189.581 107.486L189.235 109.722Z" fill="#A9453D"/>
<path d="M259.777 89.6072L260.231 127.761L259.933 127.765L259.479 89.6107L259.777 89.6072Z" fill="#1D2949"/>
<path d="M234.566 127.21L308.173 128.668L308.168 128.966L234.56 127.508L234.566 127.21Z" fill="#1D2949"/>
<path d="M264.159 108.992C264.159 109.395 265.96 109.722 268.181 109.722C270.402 109.722 272.202 109.395 272.202 108.992C272.202 108.588 270.402 108.261 268.181 108.261C265.96 108.261 264.159 108.588 264.159 108.992Z" fill="#ED823A"/>
<path d="M226.707 108.992C226.707 109.395 228.508 109.722 230.729 109.722C232.949 109.722 234.75 109.395 234.75 108.992C234.75 108.588 232.949 108.261 230.729 108.261C228.508 108.261 226.707 108.588 226.707 108.992Z" fill="#ED823A"/>
<path d="M237.432 127.37L237.729 127.354C237.524 123.561 236.399 120.364 234.388 117.852C232.778 115.842 230.602 114.266 227.919 113.168C223.839 111.498 219.797 111.455 218.965 111.467V100.121H218.667V111.774L218.822 111.768C218.867 111.766 223.318 111.604 227.815 113.448C230.448 114.527 232.582 116.073 234.158 118.042C236.128 120.504 237.23 123.642 237.432 127.37Z" fill="#1D2949"/>
<path d="M299.197 128.636C299.313 118.794 298.765 111.985 298.285 108.006C297.764 103.688 297.207 101.67 297.201 101.65L296.915 101.73C296.937 101.809 299.12 109.844 298.899 128.632L299.197 128.636Z" fill="#1D2949"/>
<path d="M256.739 89.6084H262.565V89.9062H256.739V89.6084Z" fill="#1D2949"/>
<path d="M190.742 126.035C190.742 126.035 191.878 125.542 192.565 125.413C193.25 125.285 197.237 125.799 197.237 125.799C197.237 125.799 195.523 124.642 194.622 124.256C193.722 123.87 189.52 123.077 189.52 123.077C189.744 123.569 191.128 124.39 190.742 126.035Z" fill="#E58339"/>
<path d="M189.235 118.061L192.8 116.582L194.922 113.746L190.163 115.488L188.236 115.549L189.235 118.061Z" fill="#E58339"/>
<path d="M192.607 120.247C192.607 120.247 196.015 119.861 196.787 120.247C197.559 120.633 199.488 122.626 199.231 123.077C198.974 123.527 195.565 121.555 194.279 121.576C192.993 121.597 189.187 120.954 189.187 120.954L192.607 120.247Z" fill="#E58339"/>
<path d="M201.482 138.681C201.482 138.681 197.816 137.417 196.916 137.16C196.015 136.903 193.979 136.847 193.979 136.847C193.979 136.847 194.419 137.974 194.221 138.06C194.022 138.146 193.121 138.691 193.121 138.691L201.482 138.681Z" fill="#F99746"/>
<path d="M187.72 138.681C187.72 138.681 185.319 137.546 184.719 137.546C184.119 137.546 181.675 138.113 181.675 138.113L181.932 138.691L187.72 138.681Z" fill="#F99746"/>
<path d="M189.235 109.722H193.122L193.282 109.154L191.835 108.254L194.15 107.611L194.729 106.55L192.704 105.553L193.443 104.187H190.091L190.356 105.038L191.58 104.613L191.064 106.453L191.224 107.225L189.581 107.486L189.235 109.722Z" fill="#7A231F"/>
<path d="M191.482 138.681L191.353 138.118L190.067 137.964L189.681 138.691L191.482 138.681Z" fill="#A9453D"/>
<path d="M284.369 104.148H290.735C291.584 104.148 292.278 103.453 292.278 102.605V100.733C292.278 99.8845 291.584 99.1899 290.735 99.1899H284.369C283.52 99.1899 282.825 99.8845 282.825 100.733V102.605C282.825 103.453 283.52 104.148 284.369 104.148Z" fill="#ED823A"/>
<path d="M182.669 76.248C182.669 76.248 182.767 74.6672 182.755 73.9827C182.744 73.2983 181.053 71.3346 180.478 71.3346C179.904 71.3346 180.096 73.1442 180.191 73.7071C180.287 74.2699 180 74.7804 180.319 75.2271C180.638 75.6738 181.265 76.6203 181.265 76.6203L182.669 76.248Z" fill="#D9935C"/>
<path d="M172.581 78.8537L175.295 81.4553C175.934 80.9212 176.441 80.3098 176.845 79.7128C176.908 79.6195 176.968 79.5264 177.026 79.4345C177.389 78.8546 177.655 78.3089 177.846 77.8877C177.878 77.8195 177.907 77.7549 177.934 77.6937C178.084 77.3664 176.427 76.318 175.492 75.6537C175.201 75.4387 174.977 75.2701 174.902 75.1669C174.902 75.1669 174.967 75.6056 174.905 75.9048C174.761 76.6064 174.453 77.0361 174.087 77.4372C173.139 78.4772 172.581 78.8537 172.581 78.8537Z" fill="#FFB27D"/>
<path d="M174.634 75.9677C174.634 75.9677 175.172 78.8269 176.844 79.7127C176.908 79.6195 176.968 79.5263 177.026 79.4345C177.389 78.8545 177.655 78.3088 177.846 77.8877C177.643 77.4646 176.248 76.5745 175.419 75.9868C174.952 75.9771 174.634 75.9677 174.634 75.9677Z" fill="#ED975D"/>
<path d="M177.96 79.1426C177.96 79.1426 173.898 77.7863 174.781 75.2699C175.665 72.7534 175.735 70.8835 178.366 71.643C180.997 72.4024 181.161 73.5386 181.07 74.4503C180.98 75.3621 179.039 79.4304 177.96 79.1426Z" fill="#FFB27D"/>
<path d="M174.469 76.0298C174.469 76.0298 174.882 75.7556 173.973 74.3197C173.505 73.5794 173.087 72.8832 173.751 71.6787C174.415 70.4742 174.373 69.5036 176.202 69.504C178.032 69.5043 178.216 68.6566 179.149 68.9521C180.081 69.2475 180.909 70.6172 181.707 70.8744C182.505 71.1316 183.11 75.313 181.284 75.1977C181.284 75.1977 180.598 74.8562 180.291 74.3037C179.984 73.7512 178.427 72.4928 177.932 72.9031C177.437 73.3135 175.451 76.0492 174.469 76.0298Z" fill="#233862"/>
<path d="M171.914 85.3774C171.914 85.3774 179.926 88.9627 184.795 89.7858C184.795 89.7858 186.32 89.6825 186.372 87.8059C186.404 86.6157 178.377 80.7705 175.444 80.9447C172.51 81.1189 170.9 84.1205 171.914 85.3774Z" fill="#ED823A"/>
<path d="M181.088 76.4768L181.752 85.5262L186.372 87.806C186.372 87.806 186.3 84.426 184.99 80.6865C183.571 76.6381 182.818 75.9772 182.818 75.9772C182.818 75.9772 181.543 75.6892 181.088 76.4768Z" fill="#ED823A"/>
<path d="M173.765 137.883C173.801 138.284 173.888 138.623 174.069 138.708C174.1 138.723 174.153 138.736 174.223 138.748H180.322C180.485 138.742 180.578 138.739 180.578 138.739C180.578 138.739 180.562 137.986 179.525 137.84C178.688 137.722 177.333 137.323 176.667 136.454C176.509 136.249 176.39 136.017 176.325 135.756C175.99 134.394 173.793 136.228 173.793 136.228C173.793 136.228 173.769 136.465 173.753 136.794C173.738 137.115 173.731 137.524 173.765 137.883Z" fill="#233862"/>
<path d="M168.046 138.748H174.824C174.749 138.574 174.472 138.064 173.765 137.883C173.696 137.865 173.624 137.85 173.548 137.84C172.817 137.737 171.693 137.42 170.976 136.765C170.676 136.491 170.446 136.158 170.348 135.756C170.012 134.394 167.816 136.228 167.816 136.228C167.816 136.228 167.793 136.445 167.776 136.754C167.74 137.423 167.732 138.519 168.046 138.748Z" fill="#233862"/>
<path d="M170.924 101.849C170.924 101.849 170.929 102.095 170.939 102.537C171 105.389 171.244 116.418 171.475 122.566C171.485 122.79 171.493 123.006 171.501 123.217C171.506 123.328 171.51 123.44 171.515 123.55C171.653 126.522 172.056 129.433 172.464 131.761C172.984 134.729 173.511 136.751 173.511 136.751C175.492 137.152 176.775 136.399 176.775 136.399C176.775 136.399 177.309 131.792 177.512 129.003C177.579 128.099 177.905 125.011 178.314 121.256C178.631 118.352 178.998 115.047 179.334 112.042C179.352 111.882 179.369 111.722 179.388 111.564C179.931 106.706 180.381 102.749 180.381 102.749L176.879 102.416L170.924 101.849Z" fill="#2B478B"/>
<path d="M172.464 131.761L178.314 121.256C178.631 118.352 178.998 115.047 179.334 112.042C179.352 111.882 179.369 111.722 179.388 111.564C179.931 106.706 180.38 102.749 180.38 102.749L176.879 102.416L170.939 102.537L172.464 131.761Z" fill="#233862"/>
<path d="M179.733 102.775C179.733 102.775 176.46 118.954 173.793 126.763C171.126 134.572 171.093 136.741 171.093 136.741C171.093 136.741 168.646 137.272 167.568 136.656C167.568 136.656 166.952 121.853 168.566 117.921C169.633 115.321 170.449 109.787 170.172 107.793C169.894 105.8 169.635 101.802 169.635 101.802L179.733 102.775Z" fill="#2B478B"/>
<path d="M169.205 101.381C169.389 102.371 169.828 103.16 170.506 103.64C171.279 104.188 172.499 104.386 173.842 104.365C175.409 104.34 177.145 104.016 178.532 103.601C179.279 103.378 179.923 103.129 180.388 102.887C182.462 101.806 182.167 100.367 182.118 94.982C182.067 89.4859 178.685 82.3814 178.075 81.1919C176.991 79.0747 172.39 79.771 172.39 79.771C171.382 80.6961 170.498 82.0393 169.897 84.1866C169.653 85.0557 169.511 86.2712 169.429 87.6368C169.18 91.8086 169.502 97.3723 169.259 98.6715C169.072 99.6677 169.057 100.589 169.205 101.381Z" fill="#F99746"/>
<path d="M172.991 77.6722C172.991 77.6722 172.238 79.454 172.39 79.7712C172.39 79.7712 176.524 80.1612 178.206 81.3597C178.206 81.3597 177.653 79.6295 176.98 79.1995C176.307 78.7697 172.991 77.6722 172.991 77.6722Z" fill="#ED823A"/>
<path d="M169.205 101.382C177.766 98.1235 172.878 86.0754 172.878 86.0754C171.68 86.1604 170.507 86.7423 169.429 87.637C169.18 91.8088 169.502 97.3724 169.259 98.6717C169.072 99.6677 169.057 100.589 169.205 101.382Z" fill="#ED823A"/>
<path d="M173.119 80.5735C173.119 80.5735 165.781 85.4898 162.595 89.2629C162.595 89.2629 162.788 90.7673 163.817 91.3662C164.846 91.9649 173.797 88.4809 175.14 85.8671C176.482 83.2532 174.717 80.3398 173.119 80.5735Z" fill="#F99746"/>
<path d="M172.098 96.4586C172.098 96.4586 172.567 97.2712 173.019 97.0797C173.47 96.8882 174.381 96.6863 175.058 97.1222C175.735 97.5582 176.756 98.7354 176.118 99.0224C175.48 99.3096 174.268 98.5472 173.981 98.4196C173.693 98.292 173.194 98.5472 172.641 98.2707C172.087 97.9942 171.513 97.4412 171.513 97.4412L172.098 96.4586Z" fill="#FFB27D"/>
<path d="M172.835 96.6775L166.815 88.4454L162.595 89.2629C162.595 89.2629 163.158 92.0432 166.218 94.561C169.371 97.1553 171.11 97.6702 171.11 97.6702C171.11 97.6702 173.201 98.0298 172.835 96.6775Z" fill="#F99746"/>
<path d="M130.018 85.8749C129.731 86.6475 129.233 87.544 128.71 87.7669C128.118 88.0197 127.871 88.3768 127.871 88.3768L127.392 88.0991L126.821 87.7669C126.821 87.7669 126.834 87.7035 126.862 87.6001C126.89 87.4972 126.933 87.3539 126.991 87.195C126.991 87.195 127.166 86.9698 127.059 86.6865C126.951 86.4039 126.973 85.9667 127.156 85.7001C127.339 85.4338 127.516 84.7776 127.627 84.7971C127.894 84.8431 127.495 85.745 127.61 85.9124C127.713 86.0637 127.842 86.0119 127.866 86.0003C127.868 85.9993 127.869 85.9988 127.871 85.9978C128.621 85.6681 129.53 83.8912 129.932 84.1309C130.083 84.2207 130.141 85.5457 130.018 85.8749Z" fill="#FFB27D"/>
<path d="M127.425 86.9507L128.364 87.6107C128.43 87.6573 128.523 87.6412 128.569 87.5748L130.975 84.1515C131.022 84.0853 131.006 83.9927 130.939 83.9461L130 83.2862C129.934 83.2396 129.841 83.2556 129.795 83.3221L127.389 86.7453C127.342 86.8117 127.358 86.904 127.425 86.9507Z" fill="#2B478B"/>
<path d="M128.284 87.5548L128.835 87.9418C128.885 87.9772 128.956 87.9649 128.991 87.9146L131.437 84.4336C131.473 84.383 131.461 84.3129 131.41 84.2773L130.86 83.8904C130.809 83.8549 130.739 83.8672 130.703 83.9177L128.257 87.3986C128.222 87.449 128.234 87.5193 128.284 87.5548Z" fill="#233862"/>
<path d="M113.952 82.0386C113.952 82.0386 118.73 90.3736 120.464 91.9073L126.821 87.1679C126.821 87.1679 127.743 87.4509 128.147 88.3769C128.147 88.3769 124.287 96.2417 120.486 96.575C116.686 96.9085 111.351 87.1483 111.351 87.1483L113.952 82.0386Z" fill="#233862"/>
<path d="M103.137 138.729H100.376C100.029 138.541 99.7189 138.109 99.621 137.464C99.4861 136.575 98.4891 136.09 98.2734 135.362C98.0581 134.635 99.1629 133.611 99.1629 133.611L99.3478 133.373L99.5401 133.125L101.373 133.557C101.373 133.557 101.418 133.993 101.446 134.549C101.466 134.95 101.476 135.414 101.454 135.821C101.4 136.791 101.725 137.835 102.587 138.024C103.224 138.163 103.196 138.542 103.137 138.729Z" fill="#233862"/>
<path d="M119.162 138.73H112.847C112.544 138.359 112.655 136.991 112.701 136.545C112.711 136.455 112.718 136.402 112.718 136.402C112.718 136.402 114.874 134.678 115.17 135.998C115.179 136.04 115.19 136.08 115.202 136.12C115.575 137.355 117.249 137.917 118.215 138.073C118.844 138.175 119.076 138.502 119.162 138.73Z" fill="#233862"/>
<path d="M117.959 103.483C117.959 103.483 117.631 107.568 117.246 112.478C116.723 119.149 116.094 127.342 116.032 128.894C115.925 131.59 115.493 135.901 115.493 135.901C115.493 135.901 114.469 136.925 112.421 136.494C112.421 136.494 110.595 130.339 110.074 123.827C110.066 123.72 110.058 123.613 110.05 123.505C109.565 116.876 108.81 102.917 108.81 102.917L117.959 103.483Z" fill="#FFA25C"/>
<path d="M117.959 103.483C117.959 103.483 117.631 107.568 117.246 112.478L110.074 123.827C110.066 123.72 110.058 123.613 110.05 123.505C109.565 116.876 108.81 102.917 108.81 102.917L117.959 103.483Z" fill="#EF8C48"/>
<path d="M116.463 103.968C116.463 103.968 110.562 118.762 106.681 125.715C102.801 132.667 101.588 134.608 101.588 134.608C101.588 134.608 99.3649 133.718 99.1628 133.112C99.1628 133.112 100.647 119.69 103.245 116.418C104.714 114.569 106.439 109.021 106.52 107.08C106.6 105.14 107.045 101.3 107.045 101.3L116.463 103.968Z" fill="#FFA25C"/>
<path d="M114.994 82.4009C112.688 83.1285 108.698 81.1646 108.698 81.1646C108.698 81.1646 110.824 79.5688 110.713 76.2507L112.496 77.6877L113.707 78.6637C113.707 78.6637 113.702 79.239 113.57 80.2475C113.535 80.5127 113.491 80.8085 113.436 81.1315C114.426 81.675 114.994 82.4009 114.994 82.4009Z" fill="#FFB27D"/>
<path d="M113.707 78.6637C113.707 78.6637 113.702 79.2391 113.57 80.2475C112.228 80.0173 110.705 77.8481 110.705 77.8481C111.388 77.6506 111.987 77.6153 112.496 77.6877L113.707 78.6637Z" fill="#ED975D"/>
<path d="M114.412 78.6091C114.412 78.6091 110.603 79.242 110.246 76.8636C109.888 74.4854 109.155 72.9654 111.573 72.4607C113.989 71.9561 114.6 72.7925 114.912 73.5573C115.224 74.322 115.394 78.3833 114.412 78.6091Z" fill="#FFB27D"/>
<path d="M118.213 103.823C118.144 103.881 118.063 103.915 117.971 103.915C117.105 103.904 114.579 104.385 112.442 104.165C110.641 103.992 109.047 103.459 107.334 102.691C107.107 102.589 106.584 102.31 106.595 102.056C106.603 101.778 106.631 101.374 106.665 100.866C106.787 99.0984 106.998 96.0585 106.792 92.5515C106.755 91.8984 106.735 91.2507 106.733 90.613C106.715 85.8598 107.658 81.6792 109.552 80.2643C109.714 80.1484 110.707 80.6337 111.619 81.0838C112.462 81.4998 113.305 81.5456 114.102 81.3845L114.898 82.0888C115.869 82.9894 116.931 84.2137 117.393 86.0729C117.786 87.6548 118.017 90.5077 118.144 93.4641C118.201 94.8037 118.248 96.1549 118.26 97.437V97.4829C118.271 97.61 118.271 97.7489 118.271 97.8759C118.317 101.167 118.271 103.777 118.213 103.823Z" fill="#2B478B"/>
<path d="M106.665 100.866C106.787 99.0984 106.998 96.0584 106.792 92.5514C106.755 91.8983 106.735 91.2506 106.733 90.6129C107.522 88.6991 108.167 87.3113 108.167 87.3113H110.155C110.155 87.3113 111.613 97.2692 106.665 100.866Z" fill="#233862"/>
<path d="M102.928 101.208C102.928 101.208 102.483 101.801 102.465 102.038C102.346 103.645 103.08 103.867 101.179 104.76C101.179 104.76 100.368 105.069 100.354 104.439C100.34 103.809 100.917 103.799 100.811 102.917C100.69 101.9 100.702 101.89 101.37 101.359L101.812 100.628L102.928 101.208Z" fill="#FFB27D"/>
<path d="M101.796 101.662C102.512 101.802 103.288 101.746 103.288 101.746C103.288 101.746 105.414 95.1784 105.688 94.5785C105.961 93.9786 112.002 86.878 112.002 86.878L109.486 80.5802C109.486 80.5802 102.952 91.4943 102.288 93.0278C101.192 95.5621 100.811 101.244 100.811 101.244C100.811 101.244 101.233 101.553 101.796 101.662Z" fill="#2B478B"/>
<path d="M110.242 76.6347C110.242 76.6347 110.633 76.5693 110.57 76.0309C110.507 75.4925 110.508 74.7888 110.946 74.92C111.384 75.0511 111.405 75.4015 111.585 75.1969C111.765 74.9922 111.768 74.1298 113.071 74.0699C114.374 74.0098 114.903 74.4633 115.508 74.1969C116.114 73.9307 116.146 73.0138 116.146 73.0138C116.146 73.0138 115.974 73.3412 115.714 73.4453C115.714 73.4453 116.724 72.0631 115.554 71.1153C114.384 70.1675 113.191 70.788 112.514 70.829C111.022 70.9193 110.059 71.0088 109.571 71.9891C109.084 72.9694 109.285 75.6911 110.242 76.6347Z" fill="#2B478B"/>
<path d="M102.226 101.914C102.226 101.914 102.655 102.361 102.682 102.547C102.769 103.144 102.968 103.402 102.868 103.467C102.66 103.602 102.386 103.16 102.254 102.763C102.123 102.367 102.226 101.914 102.226 101.914Z" fill="#FFB27D"/>
<path d="M4.81491 139.478L4.81619 139.652C4.81619 139.882 4.99857 140.072 5.22028 140.07L265.344 139.201L345.13 138.933L349.598 138.919C349.82 138.919 350 138.728 350 138.497L349.999 138.323C349.999 138.091 349.816 137.903 349.596 137.903L345.129 137.918L23.5364 138.994L5.21643 139.055C4.99472 139.056 4.81491 139.246 4.81491 139.478Z" fill="#2E3552"/>
</svg>
