<svg width="15" height="15" viewBox="0 0 15 15" fill="none" xmlns="http://www.w3.org/2000/svg">
<path d="M7.49902 1.25879C4.04727 1.25879 1.24902 4.05692 1.24902 7.5088C1.24902 10.9607 4.04727 13.7588 7.49902 13.7588C10.9508 13.7588 13.749 10.9607 13.749 7.5088C13.749 4.05692 10.9508 1.25879 7.49902 1.25879ZM7.49902 2.50879C10.2605 2.50879 12.499 4.74755 12.499 7.5088C12.499 10.2701 10.2605 12.5088 7.49902 12.5088C4.73759 12.5088 2.49902 10.2701 2.49902 7.5088C2.49902 4.74755 4.73759 2.50879 7.49902 2.50879ZM7.49902 4.3838C7.15384 4.3838 6.87402 4.6638 6.87402 5.0088C6.87402 5.3538 7.15384 5.6338 7.49902 5.6338C7.84421 5.6338 8.12402 5.3538 8.12402 5.0088C8.12402 4.6638 7.84421 4.3838 7.49902 4.3838ZM7.49902 6.2588C7.15384 6.2588 6.87402 6.5388 6.87402 6.8838V10.0088C6.87402 10.3538 7.15384 10.6338 7.49902 10.6338C7.84421 10.6338 8.12402 10.3538 8.12402 10.0088V6.8838C8.12402 6.5388 7.84421 6.2588 7.49902 6.2588Z" fill="#2A343D"/>
</svg>
