<svg width="34" height="34" viewBox="0 0 34 34" fill="none" xmlns="http://www.w3.org/2000/svg">
<g filter="url(#filter0_d_1_640)">
<rect x="2" y="2" width="30" height="30" rx="10" fill="white"/>
<path fill-rule="evenodd" clip-rule="evenodd" d="M16.5129 8.99594C16.8305 8.89833 17.1701 8.89833 17.4877 8.99594L19.9759 9.76067C21.2739 10.1596 22.5066 10.7462 23.635 11.5017C24.5126 12.0894 24.0966 13.4583 23.0404 13.4583H10.9603C9.90406 13.4583 9.48806 12.0894 10.3657 11.5017C11.494 10.7462 12.7268 10.1596 14.0248 9.76067L16.5129 8.99594ZM17.1205 10.1908C17.0422 10.1667 16.9585 10.1667 16.8802 10.1908L14.3921 10.9555C13.4081 11.2579 12.4653 11.6788 11.5843 12.2083H22.4164C21.5354 11.6788 20.5926 11.2579 19.6086 10.9555L17.1205 10.1908Z" fill="black"/>
<path d="M10.542 24.5C10.542 24.1548 10.8218 23.875 11.167 23.875H22.8337C23.1789 23.875 23.4587 24.1548 23.4587 24.5C23.4587 24.8452 23.1789 25.125 22.8337 25.125H11.167C10.8218 25.125 10.542 24.8452 10.542 24.5Z" fill="black"/>
<path d="M12.2087 21.1667C12.2087 21.5118 12.4885 21.7917 12.8337 21.7917C13.1789 21.7917 13.4587 21.5118 13.4587 21.1667L13.4587 16.1667C13.4587 15.8215 13.1789 15.5417 12.8337 15.5417C12.4885 15.5417 12.2087 15.8215 12.2087 16.1667L12.2087 21.1667Z" fill="black"/>
<path d="M17.0003 21.7917C16.6552 21.7917 16.3753 21.5118 16.3753 21.1667L16.3753 16.1667C16.3753 15.8215 16.6552 15.5417 17.0003 15.5417C17.3455 15.5417 17.6253 15.8215 17.6253 16.1667V21.1667C17.6253 21.5118 17.3455 21.7917 17.0003 21.7917Z" fill="black"/>
<path d="M20.542 21.1667C20.542 21.5118 20.8218 21.7917 21.167 21.7917C21.5122 21.7917 21.792 21.5118 21.792 21.1667V16.1667C21.792 15.8215 21.5122 15.5417 21.167 15.5417C20.8218 15.5417 20.542 15.8215 20.542 16.1667V21.1667Z" fill="black"/>
</g>
<defs>
<filter id="filter0_d_1_640" x="0" y="0" width="34" height="34" filterUnits="userSpaceOnUse" color-interpolation-filters="sRGB">
<feFlood flood-opacity="0" result="BackgroundImageFix"/>
<feColorMatrix in="SourceAlpha" type="matrix" values="0 0 0 0 0 0 0 0 0 0 0 0 0 0 0 0 0 0 127 0" result="hardAlpha"/>
<feOffset/>
<feGaussianBlur stdDeviation="1"/>
<feComposite in2="hardAlpha" operator="out"/>
<feColorMatrix type="matrix" values="0 0 0 0 0 0 0 0 0 0 0 0 0 0 0 0 0 0 0.15 0"/>
<feBlend mode="normal" in2="BackgroundImageFix" result="effect1_dropShadow_1_640"/>
<feBlend mode="normal" in="SourceGraphic" in2="effect1_dropShadow_1_640" result="shape"/>
</filter>
</defs>
</svg>
