<svg width="24" height="24" viewBox="0 0 24 24" fill="none" xmlns="http://www.w3.org/2000/svg">
<circle cx="12" cy="12" r="11" fill="#08840F"/>
<path d="M15.2007 17.2L18.6987 15.7997C19.002 15.6784 19.2012 15.3848 19.2016 15.0579V13.9993L15.2007 15.5996V17.2Z" fill="#E38100"/>
<path d="M8.79928 17.2V15.5996L4.79834 13.9993V15.0579C4.79876 15.3848 4.99798 15.6784 5.30126 15.7997L8.79928 17.2Z" fill="#E38100"/>
<path d="M9.04926 22.6925L10.424 23.2814C11.4306 23.7107 12.5693 23.7107 13.5759 23.2814L14.9506 22.6945C16.5318 22.0219 17.5036 20.4111 17.3612 18.6987L16.8011 11.9987L17.3764 5.12308C17.5108 3.49707 16.6398 1.95314 15.1783 1.22775L14.8626 1.07053C13.0598 0.173105 10.9401 0.173105 9.13725 1.07053L8.82159 1.22775C7.36002 1.95314 6.48903 3.49707 6.62347 5.12308L7.19882 11.9987L6.63871 18.7003C6.49785 20.4116 7.46929 22.0203 9.04926 22.6925Z" fill="#FFBC05"/>
<path d="M6.66673 18.3563C8.91805 21.3254 12.7366 22.6454 16.3406 21.6999C15.9545 22.1272 15.4804 22.4661 14.9507 22.6926L13.576 23.2815C12.5693 23.7108 11.4307 23.7108 10.4241 23.2815L9.04935 22.6946C7.46816 22.022 6.49634 20.4112 6.63879 18.6988L6.66673 18.3563Z" fill="#E38100"/>
<path d="M15.0982 17.1128L15.2006 17.046C15.4478 16.882 15.5839 16.5947 15.5543 16.2994L15.2006 12.7942H8.79907L8.44699 16.2994C8.41699 16.5943 8.5526 16.8816 8.79907 17.046L8.8999 17.1128C10.7776 18.3599 13.2201 18.3599 15.0982 17.1128Z" fill="#23AEC8"/>
<path d="M15.0378 17.1496C13.1669 18.3583 10.7575 18.3439 8.90151 17.1128L8.79909 17.046C8.55183 16.882 8.41579 16.5947 8.44542 16.2994L8.71467 13.6188C10.2502 15.6116 12.5356 16.8875 15.0378 17.1496Z" fill="#1967A3"/>
<path d="M15.2007 7.19758H8.79915L8.49189 5.35394C8.43629 5.02028 8.59632 4.68737 8.89196 4.52293L9.66775 4.09201C11.1177 3.28622 12.8813 3.28622 14.3313 4.09201L15.1071 4.52293C15.4027 4.68737 15.5628 5.02023 15.5071 5.35394L15.2007 7.19758Z" fill="#23AEC8"/>
<path d="M8.89237 4.52293L9.28326 4.30566C10.8556 5.69279 12.7365 6.68425 14.7693 7.19753H8.79913L8.49187 5.35389C8.43627 5.01985 8.59668 4.68737 8.89237 4.52293Z" fill="#1967A3"/>
<path d="M14.3337 21.4221L15.9341 19.0214L15.2682 18.5775L13.6678 20.9783L14.3337 21.4221Z" fill="#555160"/>
<path d="M9.6652 21.4221L10.3311 20.9783L8.73063 18.5775L8.06477 19.0214L9.6652 21.4221Z" fill="#555160"/>
<path d="M15.5629 12.3937H8.4392L8.05112 16.259C8.00593 16.7019 8.21035 17.1336 8.58203 17.3793L8.68286 17.4461C10.6929 18.7852 13.3112 18.7852 15.3212 17.4461L15.4224 17.3789C15.7941 17.1332 15.9982 16.7015 15.953 16.2586L15.5629 12.3937ZM14.9783 16.7119L14.8771 16.7791C13.1347 17.9398 10.8654 17.9398 9.12297 16.7791L9.02214 16.7123C8.8989 16.6303 8.83089 16.4866 8.8457 16.3394L9.16136 13.1938H14.8407L15.1564 16.3398C15.1704 16.4871 15.1019 16.6303 14.9783 16.7119Z" fill="black"/>
<path d="M8.46029 7.59767H15.5396L15.9025 5.41994C15.9857 4.91941 15.7456 4.4201 15.3023 4.17283L14.5266 3.74191C12.9574 2.8637 11.0441 2.8637 9.47495 3.74191L8.69837 4.17283C8.25545 4.4201 8.0154 4.91899 8.09823 5.41952L8.46029 7.59767ZM9.08683 4.87221L9.86261 4.44128C11.1905 3.69831 12.8093 3.69831 14.1372 4.44128L14.913 4.87221C15.0606 4.95504 15.1402 5.12149 15.1131 5.28832L14.8618 6.79747H9.13806L8.88639 5.2879C8.8584 5.12065 8.9388 4.95424 9.08683 4.87221Z" fill="black"/>
<path d="M9.6652 21.4221L10.3311 20.9783L8.73063 18.5775L8.06477 19.0214L9.6652 21.4221Z" fill="black"/>
<path d="M14.3383 21.4303L15.9395 19.0299L15.2738 18.5859L13.6727 20.9863L14.3383 21.4303Z" fill="black"/>
<path d="M19.4259 13.6679C19.3159 13.5935 19.1758 13.5783 19.0526 13.6279L17.3942 14.2913L17.201 11.9987L17.7739 5.15711C17.9292 3.36587 16.9693 1.66266 15.3566 0.868081L15.0405 0.710862C13.1241 -0.236954 10.8755 -0.236954 8.95905 0.710862L8.64339 0.868081C7.02981 1.66229 6.0692 3.3655 6.2244 5.15711L6.79853 11.9987L6.60648 14.2929L4.94808 13.6295C4.74324 13.5467 4.50999 13.6455 4.42716 13.8504C4.40794 13.8976 4.39796 13.948 4.39796 13.9992V15.0578C4.39636 15.5491 4.69561 15.9912 5.15255 16.1725L6.40604 16.6738L6.23842 18.6655C6.08077 20.5495 7.15065 22.3219 8.89104 23.0601L10.2657 23.647C11.3732 24.1176 12.6247 24.1176 13.7322 23.647L15.1069 23.0601C16.8481 22.3223 17.9187 20.5499 17.7611 18.6655L17.5943 16.6738L18.8477 16.1725C19.3043 15.9912 19.6031 15.5491 19.6015 15.0578V13.9992C19.6015 13.8663 19.5355 13.7423 19.4259 13.6679ZM6.3984 15.8088L5.44979 15.4291C5.29735 15.3691 5.19774 15.2214 5.19811 15.0578V14.5901L6.3984 15.0702V15.8088ZM14.7932 22.3244L13.4185 22.9109C12.5119 23.2962 11.4877 23.2962 10.581 22.9109L9.20632 22.3244C7.78398 21.7206 6.90976 20.2719 7.03862 18.7319L7.59873 11.9987L7.02222 5.08863C6.89617 3.62467 7.68077 2.23356 8.99908 1.58462L9.31516 1.4274C11.0067 0.590393 12.9924 0.590393 14.6841 1.4274L14.9997 1.58462C16.318 2.23356 17.103 3.62472 16.977 5.08863L16.4009 11.9987L16.9642 18.7339C17.0914 20.2738 16.2159 21.7218 14.7932 22.3244ZM18.8013 15.0578C18.8018 15.2214 18.7021 15.3691 18.5497 15.4291L17.6011 15.8088V15.0702L18.8013 14.5901V15.0578Z" fill="black"/>
</svg>
