<svg width="22" height="24" viewBox="0 0 22 24" fill="none" xmlns="http://www.w3.org/2000/svg">
<circle cx="11" cy="11.9999" r="11" fill="#FE5722"/>
<path d="M14.2012 17.2L17.6992 15.7997C18.0025 15.6784 18.2017 15.3848 18.2021 15.0579V13.9993L14.2012 15.5996V17.2Z" fill="#E38100"/>
<path d="M7.79978 17.2V15.5996L3.79883 13.9993V15.0579C3.79925 15.3848 3.99847 15.6784 4.30175 15.7997L7.79978 17.2Z" fill="#E38100"/>
<path d="M8.04927 22.6925L9.42398 23.2815C10.4306 23.7107 11.5693 23.7107 12.5759 23.2815L13.9506 22.6945C15.5318 22.022 16.5037 20.4112 16.3612 18.6988L15.8011 11.9988L16.3764 5.12309C16.5109 3.49708 15.6398 1.95315 14.1783 1.22775L13.8627 1.07053C12.0598 0.173104 9.94013 0.173104 8.13725 1.07053L7.8216 1.22775C6.36002 1.95315 5.48903 3.49708 5.62347 5.12309L6.19882 11.9988L5.63871 18.7004C5.49785 20.4116 6.46929 22.0204 8.04927 22.6925Z" fill="#FFBC05"/>
<path d="M5.66673 18.3562C7.91806 21.3253 11.7366 22.6452 15.3407 21.6998C14.9546 22.1271 14.4805 22.466 13.9507 22.6925L12.576 23.2814C11.5694 23.7107 10.4307 23.7107 9.42407 23.2814L8.04936 22.6945C6.46816 22.0219 5.49634 20.4111 5.63879 18.6987L5.66673 18.3562Z" fill="#E38100"/>
<path d="M14.0987 17.1127L14.2011 17.0459C14.4484 16.8819 14.5844 16.5946 14.5548 16.2993L14.2011 12.7941H7.79956L7.44748 16.2993C7.41748 16.5942 7.55309 16.8815 7.79956 17.0459L7.90039 17.1127C9.77807 18.3598 12.2207 18.3598 14.0987 17.1127Z" fill="#23AEC8"/>
<path d="M14.0378 17.1495C12.1669 18.3582 9.75754 18.3438 7.90152 17.1127L7.79909 17.0459C7.55183 16.8819 7.41579 16.5946 7.44542 16.2993L7.71467 13.6187C9.25021 15.6115 11.5356 16.8874 14.0378 17.1495Z" fill="#1967A3"/>
<path d="M14.2012 7.1976H7.79964L7.49237 5.35394C7.43678 5.02028 7.59681 4.68737 7.89245 4.52294L8.66824 4.09201C10.1182 3.28622 11.8818 3.28622 13.3318 4.09201L14.1076 4.52294C14.4032 4.68737 14.5633 5.02024 14.5076 5.35394L14.2012 7.1976Z" fill="#23AEC8"/>
<path d="M7.89286 4.52293L8.28375 4.30566C9.85614 5.6928 11.737 6.68426 13.7699 7.19754H7.79962L7.49236 5.35389C7.43676 5.01986 7.59717 4.68737 7.89286 4.52293Z" fill="#1967A3"/>
<path d="M13.3336 21.4223L14.9341 19.0215L14.2682 18.5776L12.6678 20.9784L13.3336 21.4223Z" fill="#555160"/>
<path d="M8.6652 21.4221L9.33105 20.9783L7.73062 18.5775L7.06477 19.0214L8.6652 21.4221Z" fill="#555160"/>
<path d="M14.5629 12.3936H7.4392L7.05112 16.2589C7.00593 16.7018 7.21036 17.1335 7.58203 17.3792L7.68286 17.446C9.69292 18.7851 12.3112 18.7851 14.3212 17.446L14.4225 17.3787C14.7941 17.1331 14.9982 16.7014 14.953 16.2585L14.5629 12.3936ZM13.9784 16.7118L13.8772 16.779C12.1347 17.9397 9.86537 17.9397 8.12297 16.779L8.02214 16.7122C7.89891 16.6301 7.83089 16.4865 7.8457 16.3393L8.16136 13.1937H13.8407L14.1564 16.3397C14.1704 16.4869 14.102 16.6301 13.9784 16.7118Z" fill="black"/>
<path d="M7.4603 7.59781H14.5396L14.9025 5.42007C14.9857 4.91954 14.7457 4.42022 14.3024 4.17296L13.5266 3.74203C11.9574 2.86382 10.0442 2.86382 8.47496 3.74203L7.69837 4.17296C7.25545 4.42022 7.0154 4.91912 7.09823 5.41965L7.4603 7.59781ZM8.08683 4.87234L8.86262 4.44141C10.1905 3.69844 11.8093 3.69844 13.1372 4.44141L13.913 4.87234C14.0607 4.95516 14.1403 5.12162 14.1131 5.28845L13.8618 6.7976H8.13807L7.88639 5.28803C7.85841 5.12077 7.9388 4.95437 8.08683 4.87234Z" fill="black"/>
<path d="M8.6652 21.4221L9.33105 20.9783L7.73062 18.5775L7.06477 19.0214L8.6652 21.4221Z" fill="black"/>
<path d="M13.3383 21.4303L14.9395 19.0299L14.2738 18.5859L12.6727 20.9863L13.3383 21.4303Z" fill="black"/>
<path d="M18.4259 13.668C18.3159 13.5935 18.1759 13.5783 18.0527 13.6279L16.3943 14.2913L16.201 11.9988L16.774 5.15713C16.9292 3.36588 15.9694 1.66267 14.3566 0.868084L14.0405 0.710864C12.1241 -0.236955 9.87551 -0.236955 7.95906 0.710864L7.64341 0.868084C6.02982 1.66229 5.0692 3.36551 5.22441 5.15713L5.79853 11.9988L5.60649 14.2929L3.94808 13.6296C3.74324 13.5467 3.50999 13.6455 3.42716 13.8504C3.40794 13.8976 3.39796 13.948 3.39796 13.9992V15.0579C3.39636 15.5492 3.69561 15.9913 4.15255 16.1725L5.40605 16.6738L5.23842 18.6655C5.08078 20.5496 6.15066 22.322 7.89105 23.0602L9.26576 23.6471C10.3732 24.1176 11.6247 24.1176 12.7322 23.6471L14.1069 23.0602C15.8481 22.3224 16.9188 20.55 16.7611 18.6655L16.5943 16.6738L17.8478 16.1725C18.3043 15.9912 18.6032 15.5492 18.6016 15.0579V13.9992C18.6016 13.8664 18.5356 13.7423 18.4259 13.668ZM5.39841 15.8088L4.44979 15.4292C4.29735 15.3692 4.19774 15.2215 4.19812 15.0579V14.5901L5.39841 15.0702V15.8088ZM13.7933 22.3244L12.4185 22.911C11.5119 23.2963 10.4877 23.2963 9.58104 22.911L8.20633 22.3244C6.78399 21.7207 5.90977 20.2719 6.03863 18.7319L6.59874 11.9987L6.02222 5.08864C5.89618 3.62468 6.68077 2.23356 7.9991 1.58462L8.31518 1.4274C10.0068 0.590395 11.9925 0.590395 13.6841 1.4274L13.9997 1.58462C15.3181 2.23356 16.103 3.62473 15.977 5.08864L15.4009 11.9987L15.9642 18.734C16.0914 20.2739 15.216 21.7219 13.7933 22.3244ZM17.8014 15.0579C17.8018 15.2215 17.7021 15.3691 17.5497 15.4292L16.6011 15.8088V15.0703L17.8014 14.5902V15.0579Z" fill="black"/>
</svg>
