<svg width="14" height="15" viewBox="0 0 14 15" fill="none" xmlns="http://www.w3.org/2000/svg">
<path d="M1.90407 10.6769H1.05469C0.941402 10.6769 0.849609 10.7716 0.849609 10.8884C0.849609 11.0052 0.941402 11.0999 1.05469 11.0999H1.90404C2.01732 11.0999 2.10912 11.0052 2.10912 10.8884C2.10912 10.7716 2.01735 10.6769 1.90407 10.6769Z" fill="black"/>
<path d="M9.54808 10.6769H8.69873C8.58545 10.6769 8.49365 10.7716 8.49365 10.8884C8.49365 11.0052 8.58545 11.0999 8.69873 11.0999H9.54808C9.66137 11.0999 9.75316 11.0052 9.75316 10.8884C9.75316 10.7716 9.66137 10.6769 9.54808 10.6769Z" fill="black"/>
<path d="M12.9473 2.79376H6.33927C6.25105 2.28543 5.81919 1.89844 5.3013 1.89844H4.45195C4.33866 1.89844 4.24687 1.99313 4.24687 2.10992V2.33638H3.60259C3.48931 2.33638 3.39752 2.43107 3.39752 2.54787C3.39752 2.66467 3.48931 2.75936 3.60259 2.75936H4.24687V3.21228H3.60259C3.48931 3.21228 3.39752 3.30697 3.39752 3.42377C3.39752 3.54056 3.48931 3.63525 3.60259 3.63525H4.24687V3.86171C4.24687 3.97851 4.33866 4.0732 4.45195 4.0732H5.3013C5.80593 4.0732 6.22885 3.70578 6.3318 3.21671H12.9473C13.3016 3.21671 13.5898 3.51397 13.5898 3.87936V9.13831C13.5898 9.5037 13.3016 9.80097 12.9473 9.80097H10.6026V9.49877C10.6026 9.20897 10.4931 8.9363 10.2943 8.73084L9.61871 8.03418H9.97281C10.3201 8.03418 10.6026 7.74283 10.6026 7.38474C10.6026 7.02665 10.3201 6.73531 9.97281 6.73531H8.86867L8.56918 6.05717C8.39855 5.67105 8.02252 5.42158 7.61116 5.42158H6.59755C6.48427 5.42158 6.39248 5.51627 6.39248 5.63307C6.39248 5.74987 6.48427 5.84456 6.59755 5.84456H7.61116C7.86226 5.84456 8.09178 5.99685 8.19593 6.23254L8.80469 7.6112H4.04936C3.93608 7.6112 3.84429 7.70589 3.84429 7.82269C3.84429 7.93949 3.93608 8.03418 4.04936 8.03418H9.03861L9.23967 8.24149L8.50423 8.83681L7.3004 9.14719H3.30225L2.09844 8.83681L1.36309 8.24158L1.56425 8.03418H3.15574C3.26903 8.03418 3.36082 7.93949 3.36082 7.82269C3.36082 7.70589 3.26903 7.6112 3.15574 7.6112H1.79802L2.40669 6.23256C2.51084 5.99685 2.74047 5.84456 2.99171 5.84456H5.70369C5.81697 5.84456 5.90877 5.74987 5.90877 5.63307C5.90877 5.51627 5.81697 5.42158 5.70369 5.42158H2.99168C2.58018 5.42158 2.20404 5.67108 2.03339 6.05723L1.73403 6.73531H0.629809C0.28257 6.73531 5.46875e-05 7.02665 5.46875e-05 7.38474C5.46875e-05 7.74283 0.28257 8.03418 0.629809 8.03418H0.984074L0.308219 8.73096C0.109457 8.9363 0 9.20897 0 9.49877V11.3412C0 11.6584 0.226844 11.922 0.521992 11.9684V12.2172C0.521992 12.567 0.798 12.8517 1.13723 12.8517H2.34309C2.68231 12.8517 2.95832 12.567 2.95832 12.2172V11.9757H4.85436C4.96765 11.9757 5.05944 11.881 5.05944 11.7642C5.05944 11.6474 4.96765 11.5527 4.85436 11.5527H3.80767V11.3246C3.80767 10.9592 4.09593 10.6619 4.45025 10.6619H6.1524C6.50672 10.6619 6.79498 10.9592 6.79498 11.3246V11.5527H5.74826C5.63497 11.5527 5.54318 11.6474 5.54318 11.7642C5.54318 11.881 5.63497 11.9757 5.74826 11.9757H7.64436V12.2172C7.64436 12.567 7.92036 12.8517 8.25959 12.8517H9.46545C9.80468 12.8517 10.0807 12.567 10.0807 12.2172V11.9684C10.3758 11.9219 10.6026 11.6584 10.6026 11.3412V10.2239H12.9473C13.5277 10.2239 14 9.7369 14 9.13828V3.87939C14 3.28077 13.5277 2.79376 12.9473 2.79376ZM5.3013 3.65023H4.65702V2.32138H5.3013C5.65655 2.32138 5.94557 2.61944 5.94557 2.98579C5.94557 3.35214 5.65655 3.65023 5.3013 3.65023ZM9.97281 7.15828C10.0939 7.15828 10.1924 7.25988 10.1924 7.38474C10.1924 7.50961 10.0939 7.6112 9.97281 7.6112H9.2555L9.05548 7.15828H9.97281ZM8.64615 9.23618C8.67412 9.22897 8.70032 9.21574 8.72304 9.19738L9.34306 8.69551V9.4122L8.02323 9.7766L7.7286 9.47277L8.64615 9.23618ZM1.95647 9.23618L2.87402 9.47274L2.57939 9.7766L1.25959 9.4122V8.69551L1.87961 9.19738C1.90228 9.21574 1.92847 9.22897 1.95647 9.23618ZM0.410211 7.38474C0.410211 7.25988 0.50873 7.15828 0.629809 7.15828H1.54725L1.34725 7.6112H0.629809C0.508703 7.6112 0.410211 7.50961 0.410211 7.38474ZM2.54814 12.2172C2.54814 12.3338 2.45615 12.4287 2.34306 12.4287H1.1372C1.02411 12.4287 0.932121 12.3338 0.932121 12.2172V11.9758H2.54814V12.2172ZM9.67047 12.2172C9.67047 12.3338 9.57849 12.4287 9.46539 12.4287H8.25953C8.14644 12.4287 8.05446 12.3338 8.05446 12.2172V11.9758H9.67047V12.2172ZM10.1924 11.3413C10.1924 11.4579 10.1004 11.5528 9.98733 11.5528H7.20511V11.3246C7.20511 10.726 6.73285 10.239 6.15237 10.239H4.45022C3.86974 10.239 3.39749 10.726 3.39749 11.3246V11.5528H0.615234C0.502141 11.5528 0.410156 11.4579 0.410156 11.3413V9.49879C0.410156 9.32182 0.477039 9.15528 0.598363 9.03L0.849434 8.77117V9.57451C0.849434 9.67024 0.911777 9.75405 1.00149 9.7788L2.58768 10.2168C2.65844 10.2356 2.72445 10.2174 2.78573 10.162L3.35964 9.57016H7.243L7.81692 10.162C7.8782 10.2174 7.94421 10.2356 8.01497 10.2168L9.60118 9.7788C9.69087 9.75405 9.75324 9.67024 9.75324 9.57451V8.77105L10.0041 9.0298C10.1256 9.15526 10.1925 9.32182 10.1925 9.49877V11.3413H10.1924Z" fill="black"/>
<path d="M11.4954 3.77235L10.2214 5.96211C10.1352 6.13906 10.1975 6.28005 10.3973 6.28242H11.4662V7.38477C11.4662 7.62043 11.7507 7.65942 11.8472 7.49359L13.1212 5.30383C13.1932 5.16619 13.1452 4.98761 12.9454 4.98352H11.8764V3.88114C11.8852 3.67171 11.6163 3.57302 11.4954 3.77235ZM12.5831 5.4065L11.8764 6.62125V6.07093C11.8764 5.95413 11.7846 5.85945 11.6713 5.85945H10.7595L11.4662 4.64469V5.19501C11.4662 5.31181 11.558 5.4065 11.6713 5.4065H12.5831Z" fill="black"/>
</svg>
