<svg width="14" height="15" viewBox="0 0 14 15" fill="none" xmlns="http://www.w3.org/2000/svg">
<path d="M7.43766 4.67969C7.43766 4.43051 7.24179 4.22852 7.00016 4.22852C6.75854 4.22852 6.56266 4.43051 6.56266 4.67969V7.6875C6.56266 7.84306 6.64037 7.98765 6.76829 8.07009L8.51829 9.19802C8.72319 9.33009 8.9931 9.26585 9.12116 9.05455C9.24922 8.84325 9.18693 8.5649 8.98204 8.43284L7.43766 7.43744V4.67969Z" fill="black"/>
<path fill-rule="evenodd" clip-rule="evenodd" d="M7.00016 2.42383C4.18121 2.42383 1.896 4.78045 1.896 7.6875C1.896 10.5945 4.18121 12.9512 7.00016 12.9512C9.81912 12.9512 12.1043 10.5945 12.1043 7.6875C12.1043 4.78045 9.81912 2.42383 7.00016 2.42383ZM2.771 7.6875C2.771 5.27881 4.66446 3.32617 7.00016 3.32617C9.33587 3.32617 11.2293 5.27881 11.2293 7.6875C11.2293 10.0962 9.33587 12.0488 7.00016 12.0488C4.66446 12.0488 2.771 10.0962 2.771 7.6875Z" fill="black"/>
</svg>
