<svg width="8" height="8" viewBox="0 0 8 8" fill="none" xmlns="http://www.w3.org/2000/svg">
<path d="M4.73483 1.76517C4.88128 1.91161 5.11872 1.91161 5.26516 1.76517L5.625 1.40533L5.625 6.5C5.625 6.70711 5.79289 6.875 6 6.875C6.20711 6.875 6.375 6.70711 6.375 6.5L6.375 1.40533L6.73483 1.76516C6.88128 1.91161 7.11872 1.91161 7.26516 1.76516C7.41161 1.61872 7.41161 1.38128 7.26516 1.23483L6.26516 0.234835C6.11872 0.0883883 5.88128 0.0883884 5.73483 0.234835L4.73483 1.23484C4.58839 1.38128 4.58839 1.61872 4.73483 1.76517Z" fill="black"/>
<path d="M2.375 6.59467L2.73483 6.23483C2.88128 6.08839 3.11872 6.08839 3.26516 6.23483C3.41161 6.38128 3.41161 6.61872 3.26516 6.76516L2.26516 7.76516C2.11872 7.91161 1.88128 7.91161 1.73483 7.76516L0.734835 6.76516C0.588388 6.61872 0.588388 6.38128 0.734835 6.23484C0.881282 6.08839 1.11872 6.08839 1.26516 6.23483L1.625 6.59467L1.625 1.5C1.625 1.29289 1.79289 1.125 2 1.125C2.20711 1.125 2.375 1.29289 2.375 1.5L2.375 6.59467Z" fill="black"/>
</svg>
