<svg width="27" height="27" viewBox="0 0 27 27" fill="none" xmlns="http://www.w3.org/2000/svg">
<path d="M21.0937 13.5C21.0937 13.966 20.716 14.3438 20.25 14.3438C19.784 14.3438 19.4062 13.966 19.4062 13.5C19.4062 13.034 19.784 12.6563 20.25 12.6563C20.716 12.6563 21.0937 13.034 21.0937 13.5ZM14.3437 13.5C14.3437 13.966 13.9659 14.3438 13.4999 14.3438C13.0339 14.3438 12.6562 13.966 12.6562 13.5C12.6562 13.034 13.0339 12.6563 13.4999 12.6563C13.9659 12.6563 14.3437 13.034 14.3437 13.5ZM7.59362 13.5C7.59362 13.966 7.21586 14.3438 6.74987 14.3438C6.28387 14.3438 5.90611 13.966 5.90611 13.5C5.90611 13.034 6.28387 12.6563 6.74987 12.6563C7.21586 12.6563 7.59362 13.034 7.59362 13.5Z" fill="black" stroke="black" stroke-width="1.68751"/>
</svg>
