<svg width="27" height="27" viewBox="0 0 27 27" fill="none" xmlns="http://www.w3.org/2000/svg">
<path d="M13.5 5.90638C13.966 5.90638 14.3438 6.28414 14.3438 6.75014C14.3438 7.21613 13.966 7.59389 13.5 7.59389C13.034 7.59389 12.6563 7.21613 12.6563 6.75014C12.6563 6.28414 13.034 5.90638 13.5 5.90638ZM13.5 12.6564C13.966 12.6564 14.3438 13.0342 14.3438 13.5002C14.3438 13.9662 13.966 14.344 13.5 14.344C13.034 14.344 12.6563 13.9662 12.6563 13.5002C12.6563 13.0342 13.034 12.6564 13.5 12.6564ZM13.5 19.4065C13.966 19.4065 14.3438 19.7843 14.3438 20.2503C14.3438 20.7163 13.966 21.094 13.5 21.094C13.034 21.094 12.6563 20.7163 12.6563 20.2503C12.6563 19.7843 13.034 19.4065 13.5 19.4065Z" fill="black" stroke="black" stroke-width="1.68751"/>
</svg>
