<svg width="18" height="18" viewBox="0 0 18 18" fill="none" xmlns="http://www.w3.org/2000/svg">
<path fill-rule="evenodd" clip-rule="evenodd" d="M5.97919 8.69668C5.97919 7.19573 7.19594 5.97897 8.69689 5.97897C10.1978 5.97897 11.4146 7.19573 11.4146 8.69668C11.4146 10.1976 10.1978 11.4144 8.69689 11.4144C7.19594 11.4144 5.97919 10.1976 5.97919 8.69668ZM8.69689 7.06606C7.79632 7.06606 7.06627 7.79611 7.06627 8.69668C7.06627 9.59725 7.79632 10.3273 8.69689 10.3273C9.59746 10.3273 10.3275 9.59725 10.3275 8.69668C10.3275 7.79611 9.59746 7.06606 8.69689 7.06606Z" fill="#062441"/>
<path fill-rule="evenodd" clip-rule="evenodd" d="M3.13352 7.71566C2.82977 8.15334 2.71794 8.49571 2.71794 8.69668C2.71794 8.89764 2.82977 9.24001 3.13352 9.67769C3.42713 10.1008 3.86356 10.5594 4.41573 10.9832C5.52246 11.8326 7.03978 12.5015 8.69689 12.5015C10.354 12.5015 11.8713 11.8326 12.9781 10.9832C13.5302 10.5594 13.9667 10.1008 14.2603 9.67769C14.564 9.24001 14.6758 8.89764 14.6758 8.69668C14.6758 8.49571 14.564 8.15334 14.2603 7.71566C13.9667 7.29257 13.5302 6.83394 12.9781 6.41016C11.8713 5.56075 10.354 4.89189 8.69689 4.89189C7.03978 4.89189 5.52246 5.56075 4.41573 6.41016C3.86356 6.83394 3.42713 7.29257 3.13352 7.71566ZM3.75386 5.54779C5.00781 4.58539 6.75173 3.80481 8.69689 3.80481C10.6421 3.80481 12.386 4.58539 13.6399 5.54779C14.2681 6.02991 14.7869 6.56777 15.1534 7.09587C15.5097 7.60939 15.7629 8.17292 15.7629 8.69668C15.7629 9.22043 15.5097 9.78397 15.1534 10.2975C14.7869 10.8256 14.2681 11.3634 13.6399 11.8456C12.386 12.808 10.6421 13.5885 8.69689 13.5885C6.75173 13.5885 5.00781 12.808 3.75386 11.8456C3.12569 11.3634 2.60692 10.8256 2.24042 10.2975C1.88406 9.78397 1.63086 9.22043 1.63086 8.69668C1.63086 8.17292 1.88406 7.60939 2.24042 7.09587C2.60692 6.56777 3.12569 6.02991 3.75386 5.54779Z" fill="#062441"/>
</svg>
