<svg width="16" height="18" viewBox="0 0 16 18" fill="none" xmlns="http://www.w3.org/2000/svg">
<g clip-path="url(#clip0_18_204)">
<path d="M2.5 17.3438C2.22384 17.3438 2 17.1129 2 16.8281V1.35938C2 1.07459 2.22384 0.84375 2.5 0.84375C2.77616 0.84375 3 1.07459 3 1.35938V16.8281C3 17.1129 2.77613 17.3438 2.5 17.3438Z" fill="black"/>
<path d="M2.49992 11.1563C2.22376 11.1565 1.99973 10.9259 1.99951 10.6411C1.99932 10.424 2.13104 10.23 2.32892 10.156L12.0369 6.51566L2.32892 2.87535C2.06936 2.77796 1.93548 2.48199 2.02992 2.21432C2.12436 1.94665 2.41136 1.80859 2.67092 1.90598L13.6709 6.03098C13.9305 6.12814 14.0645 6.42388 13.9703 6.69159C13.9198 6.83516 13.8101 6.94824 13.6709 7.00035L2.67092 11.1254C2.61601 11.1456 2.5582 11.1561 2.49992 11.1563Z" fill="black"/>
</g>
<defs>
<clipPath id="clip0_18_204">
<rect y="0.84375" width="16" height="16.5" rx="8" fill="white"/>
</clipPath>
</defs>
</svg>
