<svg width="30" height="30" viewBox="0 0 30 30" fill="none" xmlns="http://www.w3.org/2000/svg">
<rect width="30" height="30" rx="10" fill="white"/>
<g clip-path="url(#clip0_1_1810)">
<path d="M12.4286 15.0001C13.6911 15.0001 14.7143 13.9929 14.7143 12.7501C14.7143 11.5073 13.6911 10.5001 12.4286 10.5001C11.1661 10.5001 10.1429 11.5073 10.1429 12.7501C10.1429 13.9911 11.1679 15.0001 12.4286 15.0001ZM21.5714 14.1564H18.1429C17.6696 14.1564 17.2857 14.5343 17.2857 15.0001C17.2857 15.4659 17.6696 15.8439 18.1429 15.8439H21.5714C22.0446 15.8439 22.4286 15.4659 22.4286 15.0001C22.4286 14.5343 22.0464 14.1564 21.5714 14.1564ZM13.5714 16.1251H11.2857C9.70714 16.1251 8.42857 17.3837 8.42857 18.9376C8.42857 19.247 8.68571 19.5001 9 19.5001H15.8571C16.1727 19.5001 16.4286 19.2483 16.4286 18.9376C16.4286 17.3837 15.15 16.1251 13.5714 16.1251ZM21.5714 11.3439H18.1429C17.6696 11.3439 17.2857 11.7218 17.2857 12.1876C17.2857 12.6534 17.6696 13.0314 18.1429 13.0314H21.5714C22.0446 13.0314 22.4286 12.6534 22.4286 12.1876C22.4286 11.7218 22.0464 11.3439 21.5714 11.3439ZM23.2857 7.12512H7.28571C6.02321 7.12512 5 8.13235 5 9.37512V20.6251C5 21.8679 6.02321 22.8751 7.28571 22.8751H23.2857C24.5482 22.8751 25.5714 21.8679 25.5714 20.6251V9.37512C25.5714 8.13235 24.5464 7.12512 23.2857 7.12512ZM23.8571 20.6251C23.8571 20.9353 23.6008 21.1876 23.2857 21.1876H7.28571C6.97064 21.1876 6.71429 20.9353 6.71429 20.6251V9.37512C6.71429 9.06497 6.97064 8.81262 7.28571 8.81262H23.2857C23.6008 8.81262 23.8571 9.06497 23.8571 9.37512V20.6251Z" fill="#062441"/>
</g>
<defs>
<clipPath id="clip0_1_1810">
<rect width="20.5714" height="18" fill="white" transform="translate(5 6)"/>
</clipPath>
</defs>
</svg>
