<svg width="20" height="20" viewBox="0 0 20 20" fill="none" xmlns="http://www.w3.org/2000/svg">
<path fill-rule="evenodd" clip-rule="evenodd" d="M6.04152 8.33329C6.04152 6.14717 7.81373 4.37496 9.99986 4.37496C12.186 4.37496 13.9582 6.14717 13.9582 8.33329C13.9582 10.5194 12.186 12.2916 9.99986 12.2916C7.81373 12.2916 6.04152 10.5194 6.04152 8.33329ZM9.99986 5.62496C8.50409 5.62496 7.29152 6.83752 7.29152 8.33329C7.29152 9.82906 8.50409 11.0416 9.99986 11.0416C11.4956 11.0416 12.7082 9.82906 12.7082 8.33329C12.7082 6.83752 11.4956 5.62496 9.99986 5.62496Z" fill="#062441"/>
<path fill-rule="evenodd" clip-rule="evenodd" d="M2.93683 7.38067C3.2321 3.79849 6.22556 1.04163 9.81989 1.04163H10.1798C13.7742 1.04163 16.7676 3.79849 17.0629 7.38067C17.2215 9.30496 16.6271 11.2157 15.4049 12.7104L11.4107 17.5953C10.6815 18.487 9.31821 18.487 8.58905 17.5953L4.59483 12.7104C3.37261 11.2157 2.77821 9.30496 2.93683 7.38067ZM9.81989 2.29163C6.8761 2.29163 4.42443 4.54952 4.1826 7.48336C4.05059 9.08489 4.54529 10.6752 5.56251 11.9192L9.55673 16.804C9.78576 17.0841 10.214 17.0841 10.443 16.804L14.4372 11.9192C15.4544 10.6752 15.9491 9.08489 15.8171 7.48336C15.5753 4.54952 13.1236 2.29163 10.1798 2.29163H9.81989Z" fill="#062441"/>
</svg>
