<svg width="27" height="27" viewBox="0 0 27 27" fill="none" xmlns="http://www.w3.org/2000/svg">
<path fill-rule="evenodd" clip-rule="evenodd" d="M8.15603 11.25C8.15603 8.29873 10.5485 5.90625 13.4998 5.90625C16.4511 5.90625 18.8435 8.29873 18.8435 11.25C18.8435 14.2013 16.4511 16.5938 13.4998 16.5938C10.5485 16.5938 8.15603 14.2013 8.15603 11.25ZM13.4998 7.59375C11.4805 7.59375 9.84353 9.23071 9.84353 11.25C9.84353 13.2693 11.4805 14.9062 13.4998 14.9062C15.5191 14.9062 17.156 13.2693 17.156 11.25C17.156 9.23071 15.5191 7.59375 13.4998 7.59375Z" fill="#FE5722"/>
<path fill-rule="evenodd" clip-rule="evenodd" d="M3.96469 9.96396C4.36331 5.12802 8.40448 1.40625 13.2568 1.40625H13.7428C18.5951 1.40625 22.6363 5.12802 23.0349 9.96396C23.249 12.5617 22.4466 15.1413 20.7966 17.1591L15.4044 23.7537C14.42 24.9575 12.5796 24.9575 11.5952 23.7537L6.20299 17.1591C4.553 15.1413 3.75056 12.5617 3.96469 9.96396ZM13.2568 3.09375C9.28271 3.09375 5.97296 6.14191 5.64649 10.1026C5.46827 12.2647 6.13612 14.4115 7.50937 16.091L12.9016 22.6855C13.2107 23.0636 13.7888 23.0636 14.098 22.6855L19.4902 16.091C20.8634 14.4115 21.5313 12.2647 21.3531 10.1026C21.0266 6.14191 17.7169 3.09375 13.7428 3.09375H13.2568Z" fill="#FE5722"/>
</svg>
