<svg width="30" height="30" viewBox="0 0 30 30" fill="none" xmlns="http://www.w3.org/2000/svg">
<rect width="30" height="30" rx="10" fill="white"/>
<path fill-rule="evenodd" clip-rule="evenodd" d="M7.91699 9.16256C7.68878 9.16256 7.50033 9.35008 7.50033 9.57715V20.4229C7.50033 20.65 7.68878 20.8375 7.91699 20.8375H22.0837C22.3119 20.8375 22.5003 20.65 22.5003 20.4229V9.57715C22.5003 9.35008 22.3119 9.16256 22.0837 9.16256H7.91699ZM6.66699 9.57715C6.66699 8.89213 7.22854 8.33337 7.91699 8.33337H22.0837C22.7721 8.33337 23.3337 8.89213 23.3337 9.57715V20.4229C23.3337 21.108 22.7721 21.6667 22.0837 21.6667H7.91699C7.22854 21.6667 6.66699 21.108 6.66699 20.4229V9.57715Z" fill="#062441" stroke="#062441" stroke-linecap="round" stroke-linejoin="round"/>
<path fill-rule="evenodd" clip-rule="evenodd" d="M23.2578 10.1769C23.3902 10.3651 23.345 10.625 23.1568 10.7575L15.749 15.9704C15.3045 16.3485 14.6917 16.3431 14.2454 15.9718L6.84372 10.7573C6.6556 10.6248 6.61054 10.3649 6.74307 10.1767C6.8756 9.98861 7.13554 9.94354 7.32366 10.0761L14.7403 15.3011C14.7514 15.3089 14.762 15.3172 14.7722 15.326C14.9182 15.4517 15.084 15.4465 15.2158 15.3298C15.2274 15.3195 15.2396 15.3099 15.2522 15.3009L22.6772 10.0759C22.8654 9.94352 23.1253 9.98872 23.2578 10.1769Z" fill="#062441" stroke="#062441" stroke-linecap="round" stroke-linejoin="round"/>
</svg>
