<svg width="30" height="30" viewBox="0 0 30 30" fill="none" xmlns="http://www.w3.org/2000/svg">
<rect width="30" height="30" rx="10" fill="white"/>
<path fill-rule="evenodd" clip-rule="evenodd" d="M9.52513 8.09124L10.2923 7.93781C10.8253 7.8312 11.3661 8.0813 11.6301 8.55648L12.9388 10.9121C13.2098 11.4 13.1246 12.0084 12.73 12.4031L11.8489 13.2841C11.4434 13.6901 11.3664 14.32 11.6626 14.8115C12.1595 15.6378 12.7381 16.381 13.3981 17.041C14.0582 17.7011 14.8008 18.2791 15.626 18.775C16.1176 19.0698 16.7467 18.9925 17.1522 18.5874L18.0333 17.7064C18.4279 17.3117 19.0364 17.2265 19.5242 17.4975L21.8799 18.8062C22.355 19.0702 22.6051 19.611 22.4985 20.1441L22.3451 20.9112C22.2718 21.2776 22.0384 21.592 21.7084 21.7672C18.6123 23.4175 15.2524 22.4309 11.6289 18.8074C8.00543 15.1839 7.01885 11.8241 8.66919 8.72797C8.84439 8.39794 9.15876 8.16457 9.52513 8.09124Z" fill="#062441"/>
</svg>
