<svg width="15" height="15" viewBox="0 0 15 15" fill="none" xmlns="http://www.w3.org/2000/svg">
<circle cx="7.5" cy="7.5" r="7.5" fill="white"/>
<g clip-path="url(#clip0_1_1921)">
<path d="M9.25 6.33333H9.25417M4.25 9.66667L6.33333 7.58333C6.72 7.21125 7.19667 7.21125 7.58333 7.58333L9.66667 9.66667M8.83333 8.83333L9.25 8.41667C9.63667 8.04458 10.1133 8.04458 10.5 8.41667L11.75 9.66667M4.25 5.5C4.25 5.16848 4.3817 4.85054 4.61612 4.61612C4.85054 4.3817 5.16848 4.25 5.5 4.25H10.5C10.8315 4.25 11.1495 4.3817 11.3839 4.61612C11.6183 4.85054 11.75 5.16848 11.75 5.5V10.5C11.75 10.8315 11.6183 11.1495 11.3839 11.3839C11.1495 11.6183 10.8315 11.75 10.5 11.75H5.5C5.16848 11.75 4.85054 11.6183 4.61612 11.3839C4.3817 11.1495 4.25 10.8315 4.25 10.5V5.5Z" stroke="#FE5722" stroke-width="0.833333" stroke-linecap="round" stroke-linejoin="round"/>
</g>
<defs>
<clipPath id="clip0_1_1921">
<rect width="10" height="10" fill="white" transform="translate(3 3)"/>
</clipPath>
</defs>
</svg>
