<svg width="30" height="30" viewBox="0 0 30 30" fill="none" xmlns="http://www.w3.org/2000/svg">
<path fill-rule="evenodd" clip-rule="evenodd" d="M7 3H27V23H7V3Z" fill="#FE5722"/>
<rect width="30" height="30" rx="10" fill="#FE5722"/>
<rect width="18" height="18" transform="translate(6 6)" fill="#FE5722"/>
<path d="M14.9231 6C19.9361 6 24 10.0294 24 15C24 19.9706 19.9361 24 14.9231 24C10.5244 24 6.85652 20.8977 6.02351 16.7795C5.77988 15.5749 7.50271 15.4977 7.82882 16.7795C8.62898 19.9254 11.5018 22.254 14.9231 22.254C18.9636 22.254 22.239 19.0063 22.239 15C22.239 10.9937 18.9636 7.74603 14.9231 7.74603C13.1224 7.74603 11.4177 8.40483 10.1427 9.47466C10.0486 9.55356 9.8594 9.75653 9.73805 9.88669C9.69095 9.93721 9.65408 9.97676 9.63697 9.99383H11.2484C11.7349 9.99383 12.1293 10.3849 12.1293 10.8672C12.1293 11.3496 11.7349 11.7407 11.2484 11.7407H7.66021C7.17371 11.7407 6.77933 11.3496 6.77933 10.8672V7.02743C6.77933 6.54506 7.17371 6.15401 7.66021 6.15401C8.14671 6.15401 8.5411 6.54506 8.5411 7.02743V8.61019C8.57934 8.57258 8.89747 8.26872 8.93983 8.23188C10.5373 6.84235 12.631 6 14.9231 6Z" fill="white"/>
<path d="M14.6424 9.9375C15.1084 9.9375 15.4861 10.3153 15.4861 10.7812V15.4943L18.0515 18.0596C18.381 18.3891 18.381 18.9234 18.0515 19.2529C17.722 19.5824 17.1878 19.5824 16.8583 19.2529L14.0458 16.4404C13.8875 16.2821 13.7986 16.0675 13.7986 15.8438V10.7812C13.7986 10.3153 14.1764 9.9375 14.6424 9.9375Z" fill="white"/>
</svg>
