<svg width="30" height="30" viewBox="0 0 30 30" fill="none" xmlns="http://www.w3.org/2000/svg">
<rect width="30" height="30" rx="10" fill="#FE5722"/>
<g clip-path="url(#clip0_1_1524)">
<path d="M22.7333 14.7333H17.9333V7.26667C17.9333 7.11939 17.8139 7 17.6667 7C17.5194 7 17.4 7.11939 17.4 7.26667V14.7333H12.6V7.26667C12.6 7.11939 12.4806 7 12.3333 7C12.1861 7 12.0667 7.11939 12.0667 7.26667V14.7333H7.26667C7.11939 14.7333 7 14.8527 7 15C7 15.1473 7.11939 15.2667 7.26667 15.2667H12.0667V22.7333C12.0667 22.8806 12.1861 23 12.3333 23C12.4806 23 12.6 22.8806 12.6 22.7333V15.2667H17.4V22.7333C17.4 22.8806 17.5194 23 17.6667 23C17.8139 23 17.9333 22.8806 17.9333 22.7333V15.2667H22.7333C22.8806 15.2667 23 15.1473 23 15C23 14.8527 22.8806 14.7333 22.7333 14.7333Z" fill="white"/>
<path d="M8.06689 11H11.2669V12.3333H8.06689V11Z" fill="white"/>
<path d="M11.2669 10.016C11.2263 10.0161 11.1861 10.007 11.1496 9.98931C10.6862 9.77072 10.1792 9.66038 9.66689 9.66665C9.15473 9.66025 8.64782 9.77041 8.18449 9.98878C8.14771 10.0059 8.10746 10.0143 8.06689 10.0133V10.4666H11.2669V10.016Z" fill="white"/>
<path d="M8.86689 13.9334H10.4669C10.9087 13.9334 11.2669 13.5752 11.2669 13.1334V12.8667H8.06689V13.1334C8.06689 13.5752 8.42507 13.9334 8.86689 13.9334Z" fill="white"/>
<path d="M11.2669 9.46132V8.86665C11.2669 8.42482 10.9087 8.06665 10.4669 8.06665H8.86689C8.42507 8.06665 8.06689 8.42482 8.06689 8.86665V9.46132C8.57155 9.24171 9.11653 9.12999 9.66689 9.13332C10.2173 9.12999 10.7622 9.24171 11.2669 9.46132Z" fill="white"/>
<path d="M13.3999 19.9867C13.4405 19.9856 13.4807 19.994 13.5175 20.0112C13.9808 20.2296 14.4877 20.3397 14.9999 20.3333C15.5121 20.3397 16.019 20.2296 16.4823 20.0112C16.519 19.9939 16.5593 19.9855 16.5999 19.9867V19.5333H13.3999V19.9867Z" fill="white"/>
<path d="M13.3999 17.6666H16.5999V19H13.3999V17.6666Z" fill="white"/>
<path d="M13.3999 20.5387V21.1334C13.3999 21.5752 13.7581 21.9334 14.1999 21.9334H15.7999C16.2417 21.9334 16.5999 21.5752 16.5999 21.1334V20.5387C15.5781 20.976 14.4217 20.976 13.3999 20.5387Z" fill="white"/>
<path d="M15.7999 16.0667H14.1999C13.7581 16.0667 13.3999 16.4248 13.3999 16.8667V17.1333H16.5999V16.8667C16.5999 16.4248 16.2417 16.0667 15.7999 16.0667Z" fill="white"/>
<path d="M18.7334 9.66663H21.9334V11H18.7334V9.66663Z" fill="white"/>
<path d="M20.3334 12.3333C20.8456 12.3397 21.3525 12.2296 21.8158 12.0112C21.8526 11.994 21.8928 11.9856 21.9334 11.9867V11.5333H18.7334V11.9867C18.774 11.9857 18.8142 11.9942 18.851 12.0115C19.3143 12.2297 19.8213 12.3398 20.3334 12.3333Z" fill="white"/>
<path d="M19.5334 13.9334H21.1334C21.5752 13.9334 21.9334 13.5752 21.9334 13.1334V12.5387C20.9116 12.976 19.7552 12.976 18.7334 12.5387V13.1334C18.7334 13.3455 18.8177 13.549 18.9677 13.699C19.1177 13.8491 19.3212 13.9334 19.5334 13.9334Z" fill="white"/>
<path d="M21.9334 8.86665C21.9334 8.42482 21.5752 8.06665 21.1334 8.06665H19.5334C19.0916 8.06665 18.7334 8.42482 18.7334 8.86665V9.13332H21.9334V8.86665Z" fill="white"/>
<path d="M21.8158 17.9888C20.8742 17.5593 19.7926 17.5593 18.851 17.9888C18.8142 18.0058 18.774 18.0142 18.7334 18.0133V18.4666H21.9334V18.016C21.8926 18.016 21.8524 18.0067 21.8158 17.9888Z" fill="white"/>
<path d="M18.7334 19H21.9334V20.3333H18.7334V19Z" fill="white"/>
<path d="M18.7334 21.1334C18.7334 21.5752 19.0916 21.9334 19.5334 21.9334H21.1334C21.5752 21.9334 21.9334 21.5752 21.9334 21.1334V20.8667H18.7334V21.1334Z" fill="white"/>
<path d="M21.1334 16.0667H19.5334C19.0916 16.0667 18.7334 16.4248 18.7334 16.8667V17.4613C19.7552 17.024 20.9116 17.024 21.9334 17.4613V16.8667C21.9334 16.4248 21.5752 16.0667 21.1334 16.0667Z" fill="white"/>
<path d="M9.40016 16.6H8.60016C8.45289 16.6 8.3335 16.7194 8.3335 16.8666V21.4C8.3335 21.5473 8.45289 21.6666 8.60016 21.6666C8.74744 21.6666 8.86683 21.5473 8.86683 21.4V19.8H9.40016C10.2838 19.8 11.0002 19.0836 11.0002 18.2C11.0002 17.3163 10.2838 16.6 9.40016 16.6ZM9.40016 19.2666H8.86683V17.1333H9.40016C9.98927 17.1333 10.4668 17.6109 10.4668 18.2C10.4668 18.7891 9.98927 19.2666 9.40016 19.2666Z" fill="white"/>
<path d="M13.9332 13.4C14.0804 13.4 14.1998 13.2807 14.1998 13.1334V11.5334H14.7332C15.6168 11.5334 16.3332 10.817 16.3332 9.93337C16.3332 9.04972 15.6168 8.33337 14.7332 8.33337H13.9332C13.7859 8.33337 13.6665 8.45276 13.6665 8.60004V13.1334C13.6665 13.2807 13.7859 13.4 13.9332 13.4ZM14.7332 8.86671C15.3223 8.86671 15.7998 9.34427 15.7998 9.93337C15.7998 10.5225 15.3223 11 14.7332 11H14.1998V8.86671H14.7332Z" fill="white"/>
</g>
<defs>
<clipPath id="clip0_1_1524">
<rect width="16" height="16" fill="white" transform="translate(7 7)"/>
</clipPath>
</defs>
</svg>
