<svg width="22" height="22" viewBox="0 0 22 22" fill="none" xmlns="http://www.w3.org/2000/svg">
<g clip-path="url(#clip0_1_1780)">
<path fill-rule="evenodd" clip-rule="evenodd" d="M11 0C4.93281 0 0 4.93281 0 11C0 17.0672 4.93281 22 11 22C17.0672 22 22 17.0672 22 11C22 4.93281 17.0672 0 11 0Z" fill="#088444"/>
<path d="M8.88164 16.0317C7.47656 14.6266 6.08008 13.2086 4.6707 11.8036C4.51602 11.6489 4.51602 11.3911 4.6707 11.2364L6.29062 9.61645C6.44531 9.46177 6.70313 9.46177 6.85781 9.61645L9.17383 11.9325L15.1293 5.97271C15.2883 5.81802 15.5418 5.81802 15.7008 5.97271L17.325 7.59692C17.484 7.75591 17.484 8.00942 17.325 8.16411L9.44883 16.0317C9.29414 16.1907 9.04062 16.1907 8.88164 16.0317Z" fill="white"/>
</g>
<defs>
<clipPath id="clip0_1_1780">
<rect width="22" height="22" fill="white"/>
</clipPath>
</defs>
</svg>
