<svg width="14" height="14" viewBox="0 0 14 14" fill="none" xmlns="http://www.w3.org/2000/svg">
<g clip-path="url(#clip0_1_1966)">
<path fill-rule="evenodd" clip-rule="evenodd" d="M7 0C3.13906 0 0 3.13906 0 7C0 10.8609 3.13906 14 7 14C10.8609 14 14 10.8609 14 7C14 3.13906 10.8609 0 7 0Z" fill="#01509D"/>
<path d="M5.65195 10.2019C4.75781 9.30779 3.86914 8.40544 2.97227 7.5113C2.87383 7.41287 2.87383 7.2488 2.97227 7.15037L4.00313 6.11951C4.10156 6.02107 4.26563 6.02107 4.36406 6.11951L5.83789 7.59333L9.62774 3.80076C9.72891 3.70232 9.89023 3.70232 9.99141 3.80076L11.025 4.83435C11.1262 4.93552 11.1262 5.09685 11.025 5.19529L6.01289 10.2019C5.91445 10.3031 5.75313 10.3031 5.65195 10.2019Z" fill="white"/>
</g>
<defs>
<clipPath id="clip0_1_1966">
<rect width="14" height="14" fill="white"/>
</clipPath>
</defs>
</svg>
