<svg width="30" height="30" viewBox="0 0 30 30" fill="none" xmlns="http://www.w3.org/2000/svg">
<rect width="30" height="30" rx="10" fill="white"/>
<path d="M7.99902 6.90637C6.34212 6.90637 4.99902 8.24947 4.99902 9.90637V19.6564C4.99902 21.4513 6.45412 22.9064 8.24902 22.9064H21.749C23.5439 22.9064 24.999 21.4513 24.999 19.6564V11.9064C24.999 11.3541 24.5513 10.9064 23.999 10.9064H22.999V7.90637C22.999 7.35407 22.5513 6.90637 21.999 6.90637H7.99902ZM7.99902 8.90637H20.999V10.9064H7.99902C7.44672 10.9064 6.99902 10.4587 6.99902 9.90637C6.99902 9.35407 7.44672 8.90637 7.99902 8.90637ZM7.99902 12.9064H22.999V19.6564C22.999 20.3468 22.4393 20.9064 21.749 20.9064H8.24902C7.55862 20.9064 6.99902 20.3468 6.99902 19.6564L7.00482 12.7305C7.00482 12.7305 7.36282 12.9095 7.99902 12.9064ZM19.999 15.9064C19.4467 15.9064 18.999 16.3541 18.999 16.9064C18.999 17.4587 19.4467 17.9064 19.999 17.9064C20.5513 17.9064 20.999 17.4587 20.999 16.9064C20.999 16.3541 20.5513 15.9064 19.999 15.9064Z" fill="#2A343D"/>
</svg>
