<svg width="40" height="40" viewBox="0 0 40 40" fill="none" xmlns="http://www.w3.org/2000/svg">
<rect width="40" height="40" rx="10" fill="#01509D"/>
<path d="M10.665 9.2085C8.45584 9.2085 6.66504 10.9993 6.66504 13.2085V26.2085C6.66504 28.6017 8.60517 30.5418 10.9984 30.5418H28.9984C31.3916 30.5418 33.3317 28.6017 33.3317 26.2085V15.8752C33.3317 15.1388 32.7348 14.5418 31.9984 14.5418H30.665V10.5418C30.665 9.80543 30.0681 9.2085 29.3317 9.2085H10.665ZM10.665 11.8752H27.9984V14.5418H10.665C9.92864 14.5418 9.33171 13.9449 9.33171 13.2085C9.33171 12.4721 9.92864 11.8752 10.665 11.8752ZM10.665 17.2085H30.665V26.2085C30.665 27.129 29.9188 27.8752 28.9984 27.8752H10.9984C10.0778 27.8752 9.33171 27.129 9.33171 26.2085L9.33944 16.974C9.33944 16.974 9.81677 17.2126 10.665 17.2085ZM26.665 21.2085C25.9286 21.2085 25.3317 21.8054 25.3317 22.5418C25.3317 23.2782 25.9286 23.8752 26.665 23.8752C27.4014 23.8752 27.9984 23.2782 27.9984 22.5418C27.9984 21.8054 27.4014 21.2085 26.665 21.2085Z" fill="#F7FBFF"/>
</svg>
